<svg width="157" height="147" viewBox="0 0 157 147" fill="none" xmlns="http://www.w3.org/2000/svg">
<path d="M140.767 53.0623V128.705C140.767 138.258 133.036 146.002 123.484 146.002H32.9981L65.2192 115.328L72.4697 129.349L89.1771 81.269L39.947 95.1805L53.9667 103.527L17.9065 137.861C16.2358 135.215 15.2764 132.077 15.2764 128.705V53.0623C15.2764 52.9527 15.2764 52.843 15.2901 52.7334C15.4258 44.8114 20.9232 38.1777 28.3244 36.3137C29.6812 35.9574 31.1053 35.7792 32.5732 35.7792H123.484C124.951 35.7792 126.361 35.9574 127.719 36.3137C135.119 38.164 140.617 44.7963 140.752 52.7334C140.767 52.843 140.767 52.9527 140.767 53.0623Z" fill="#F30C0C"/>
<path d="M22.2932 52.7402H0L27.1218 0.00268555H41.6651L22.2932 52.7402Z" fill="#FF2525"/>
<path d="M44.5866 52.7402H22.2939L41.6659 0.00268555H56.2105L44.5866 52.7402Z" fill="#FF9F9F"/>
<path d="M66.8804 52.7402H44.5864L56.2104 0.00268555H70.7551L66.8804 52.7402Z" fill="#FF2525"/>
<path d="M89.1739 52.7402H66.8799L70.7545 0.00268555H85.2979L89.1739 52.7402Z" fill="#FF9F9F"/>
<path d="M111.467 52.7402H89.1749L85.2988 0.00268555H99.8435L111.467 52.7402Z" fill="#FF2525"/>
<path d="M156.055 52.7402H133.761L114.389 0.00268555H128.933L156.055 52.7402Z" fill="#FF2525"/>
<path d="M133.76 52.7402H111.468L99.8438 0.00268555H114.388L133.76 52.7402Z" fill="#FF9F9F"/>
<path d="M22.2932 52.7378C22.2932 58.8945 17.3029 63.8848 11.1467 63.8848C4.99031 63.8848 0 58.8945 0 52.7378H22.2932Z" fill="#FF2525"/>
<path d="M44.5866 52.7378C44.5866 58.8945 39.5963 63.8848 33.4396 63.8848C27.2843 63.8848 22.2939 58.8945 22.2939 52.7378H44.5866Z" fill="#FF7878"/>
<path d="M66.8804 52.7378C66.8804 58.8945 61.8901 63.8848 55.7334 63.8848C49.5768 63.8848 44.5864 58.8945 44.5864 52.7378H66.8804Z" fill="#FF2525"/>
<path d="M89.1739 52.7378C89.1739 58.8945 84.1822 63.8848 78.0269 63.8848C71.8702 63.8848 66.8799 58.8945 66.8799 52.7378H89.1739Z" fill="#FF7878"/>
<path d="M111.467 52.7378C111.467 58.8945 106.477 63.8848 100.32 63.8848C94.1646 63.8848 89.1743 58.8945 89.1743 52.7378H111.467Z" fill="#FF2525"/>
<path d="M133.76 52.7378C133.76 58.8945 128.77 63.8848 122.613 63.8848C116.458 63.8848 111.468 58.8945 111.468 52.7378H133.76Z" fill="#FF7878"/>
<path d="M156.055 52.7378C156.055 58.8945 151.064 63.8848 144.908 63.8848C138.751 63.8848 133.761 58.8945 133.761 52.7378H156.055Z" fill="#FF2525"/>
</svg>
