<svg width="555" height="135" viewBox="0 0 555 135" fill="none" xmlns="http://www.w3.org/2000/svg">
<path d="M206.202 67.698C202.406 67.698 198.974 67.048 195.906 65.748C192.89 64.448 190.498 62.576 188.73 60.132C186.962 57.688 186.052 54.802 186 51.474H197.7C197.856 53.71 198.636 55.478 200.04 56.778C201.496 58.078 203.472 58.728 205.968 58.728C208.516 58.728 210.518 58.13 211.974 56.934C213.43 55.686 214.158 54.074 214.158 52.098C214.158 50.486 213.664 49.16 212.676 48.12C211.688 47.08 210.44 46.274 208.932 45.702C207.476 45.078 205.448 44.402 202.848 43.674C199.312 42.634 196.426 41.62 194.19 40.632C192.006 39.592 190.108 38.058 188.496 36.03C186.936 33.95 186.156 31.194 186.156 27.762C186.156 24.538 186.962 21.73 188.574 19.338C190.186 16.946 192.448 15.126 195.36 13.878C198.272 12.578 201.6 11.928 205.344 11.928C210.96 11.928 215.51 13.306 218.994 16.062C222.53 18.766 224.48 22.562 224.844 27.45H212.832C212.728 25.578 211.922 24.044 210.414 22.848C208.958 21.6 207.008 20.976 204.564 20.976C202.432 20.976 200.716 21.522 199.416 22.614C198.168 23.706 197.544 25.292 197.544 27.372C197.544 28.828 198.012 30.05 198.948 31.038C199.936 31.974 201.132 32.754 202.536 33.378C203.992 33.95 206.02 34.626 208.62 35.406C212.156 36.446 215.042 37.486 217.278 38.526C219.514 39.566 221.438 41.126 223.05 43.206C224.662 45.286 225.468 48.016 225.468 51.396C225.468 54.308 224.714 57.012 223.206 59.508C221.698 62.004 219.488 64.006 216.576 65.514C213.664 66.97 210.206 67.698 206.202 67.698Z" fill="#FF2525"/>
<path d="M259.271 23.316C262.547 23.316 265.459 24.044 268.007 25.5C270.555 26.904 272.531 29.01 273.935 31.818C275.391 34.574 276.119 37.902 276.119 41.802V67.152H265.199V43.284C265.199 39.852 264.341 37.226 262.625 35.406C260.909 33.534 258.569 32.598 255.605 32.598C252.589 32.598 250.197 33.534 248.429 35.406C246.713 37.226 245.855 39.852 245.855 43.284V67.152H234.935V9.432H245.855V29.322C247.259 27.45 249.131 25.994 251.471 24.954C253.811 23.862 256.411 23.316 259.271 23.316Z" fill="#FF2525"/>
<path d="M305.692 67.854C301.532 67.854 297.788 66.944 294.46 65.124C291.132 63.252 288.506 60.626 286.582 57.246C284.71 53.866 283.774 49.966 283.774 45.546C283.774 41.126 284.736 37.226 286.66 33.846C288.636 30.466 291.314 27.866 294.694 26.046C298.074 24.174 301.844 23.238 306.004 23.238C310.164 23.238 313.934 24.174 317.314 26.046C320.694 27.866 323.346 30.466 325.27 33.846C327.246 37.226 328.234 41.126 328.234 45.546C328.234 49.966 327.22 53.866 325.192 57.246C323.216 60.626 320.512 63.252 317.08 65.124C313.7 66.944 309.904 67.854 305.692 67.854ZM305.692 58.338C307.668 58.338 309.514 57.87 311.23 56.934C312.998 55.946 314.402 54.49 315.442 52.566C316.482 50.642 317.002 48.302 317.002 45.546C317.002 41.438 315.91 38.292 313.726 36.108C311.594 33.872 308.968 32.754 305.848 32.754C302.728 32.754 300.102 33.872 297.97 36.108C295.89 38.292 294.85 41.438 294.85 45.546C294.85 49.654 295.864 52.826 297.892 55.062C299.972 57.246 302.572 58.338 305.692 58.338Z" fill="#FF2525"/>
<path d="M347.164 30.18C348.568 28.204 350.492 26.566 352.936 25.266C355.432 23.914 358.266 23.238 361.438 23.238C365.13 23.238 368.458 24.148 371.422 25.968C374.438 27.788 376.804 30.388 378.52 33.768C380.288 37.096 381.172 40.97 381.172 45.39C381.172 49.81 380.288 53.736 378.52 57.168C376.804 60.548 374.438 63.174 371.422 65.046C368.458 66.918 365.13 67.854 361.438 67.854C358.266 67.854 355.458 67.204 353.014 65.904C350.622 64.604 348.672 62.966 347.164 60.99V87.744H336.244V23.94H347.164V30.18ZM370.018 45.39C370.018 42.79 369.472 40.554 368.38 38.682C367.34 36.758 365.936 35.302 364.168 34.314C362.452 33.326 360.58 32.832 358.552 32.832C356.576 32.832 354.704 33.352 352.936 34.392C351.22 35.38 349.816 36.836 348.724 38.76C347.684 40.684 347.164 42.946 347.164 45.546C347.164 48.146 347.684 50.408 348.724 52.332C349.816 54.256 351.22 55.738 352.936 56.778C354.704 57.766 356.576 58.26 358.552 58.26C360.58 58.26 362.452 57.74 364.168 56.7C365.936 55.66 367.34 54.178 368.38 52.254C369.472 50.33 370.018 48.042 370.018 45.39Z" fill="#FF2525"/>
<path d="M419.839 67.152L400.027 42.894V67.152H389.107V12.708H400.027V37.122L419.839 12.708H433.021L410.557 39.696L433.645 67.152H419.839Z" fill="#FF2525"/>
<path d="M465.164 23.316C468.44 23.316 471.352 24.044 473.9 25.5C476.448 26.904 478.424 29.01 479.828 31.818C481.284 34.574 482.012 37.902 482.012 41.802V67.152H471.092V43.284C471.092 39.852 470.234 37.226 468.518 35.406C466.802 33.534 464.462 32.598 461.498 32.598C458.482 32.598 456.09 33.534 454.322 35.406C452.606 37.226 451.748 39.852 451.748 43.284V67.152H440.828V9.432H451.748V29.322C453.152 27.45 455.024 25.994 457.364 24.954C459.704 23.862 462.304 23.316 465.164 23.316Z" fill="#FF2525"/>
<path d="M511.584 67.854C507.424 67.854 503.68 66.944 500.352 65.124C497.024 63.252 494.398 60.626 492.474 57.246C490.602 53.866 489.666 49.966 489.666 45.546C489.666 41.126 490.628 37.226 492.552 33.846C494.528 30.466 497.206 27.866 500.586 26.046C503.966 24.174 507.736 23.238 511.896 23.238C516.056 23.238 519.826 24.174 523.206 26.046C526.586 27.866 529.238 30.466 531.162 33.846C533.138 37.226 534.126 41.126 534.126 45.546C534.126 49.966 533.112 53.866 531.084 57.246C529.108 60.626 526.404 63.252 522.972 65.124C519.592 66.944 515.796 67.854 511.584 67.854ZM511.584 58.338C513.56 58.338 515.406 57.87 517.122 56.934C518.89 55.946 520.294 54.49 521.334 52.566C522.374 50.642 522.894 48.302 522.894 45.546C522.894 41.438 521.802 38.292 519.618 36.108C517.486 33.872 514.86 32.754 511.74 32.754C508.62 32.754 505.994 33.872 503.862 36.108C501.782 38.292 500.742 41.438 500.742 45.546C500.742 49.654 501.756 52.826 503.784 55.062C505.864 57.246 508.464 58.338 511.584 58.338Z" fill="#FF2525"/>
<path d="M547.674 18.792C545.698 18.792 544.06 18.194 542.76 16.998C541.512 15.75 540.888 14.216 540.888 12.396C540.888 10.576 541.512 9.068 542.76 7.872C544.06 6.624 545.698 6 547.674 6C549.598 6 551.184 6.624 552.432 7.872C553.68 9.068 554.304 10.576 554.304 12.396C554.304 14.216 553.68 15.75 552.432 16.998C551.184 18.194 549.598 18.792 547.674 18.792ZM553.056 74.25C553.056 79.034 551.86 82.466 549.468 84.546C547.128 86.678 543.748 87.744 539.328 87.744H534.492V78.462H537.612C539.276 78.462 540.446 78.124 541.122 77.448C541.798 76.824 542.136 75.784 542.136 74.328V23.94H553.056V74.25Z" fill="#FF2525"/>
<path d="M269.32 105.425L264.472 122.153H262.024L258.136 108.689L254.104 122.153L251.68 122.177L247 105.425H249.328L252.976 119.609L257.008 105.425H259.456L263.296 119.561L266.968 105.425H269.32Z" fill="black"/>
<path d="M283.71 115.073C283.71 115.489 283.686 115.929 283.638 116.393H273.126C273.206 117.689 273.646 118.705 274.446 119.441C275.262 120.161 276.246 120.521 277.398 120.521C278.342 120.521 279.126 120.305 279.75 119.873C280.39 119.425 280.838 118.833 281.094 118.097H283.446C283.094 119.361 282.39 120.393 281.334 121.193C280.278 121.977 278.966 122.369 277.398 122.369C276.15 122.369 275.03 122.089 274.038 121.529C273.062 120.969 272.294 120.177 271.734 119.153C271.174 118.113 270.894 116.913 270.894 115.553C270.894 114.193 271.166 113.001 271.71 111.977C272.254 110.953 273.014 110.169 273.99 109.625C274.982 109.065 276.118 108.785 277.398 108.785C278.646 108.785 279.75 109.057 280.71 109.601C281.67 110.145 282.406 110.897 282.918 111.857C283.446 112.801 283.71 113.873 283.71 115.073ZM281.454 114.617C281.454 113.785 281.27 113.073 280.902 112.481C280.534 111.873 280.03 111.417 279.39 111.113C278.766 110.793 278.07 110.633 277.302 110.633C276.198 110.633 275.254 110.985 274.47 111.689C273.702 112.393 273.262 113.369 273.15 114.617H281.454Z" fill="black"/>
<path d="M298.295 122.321C297.191 122.321 296.199 122.129 295.319 121.745C294.455 121.345 293.775 120.801 293.279 120.113C292.783 119.409 292.527 118.601 292.511 117.689H294.839C294.919 118.473 295.239 119.137 295.799 119.681C296.375 120.209 297.207 120.473 298.295 120.473C299.335 120.473 300.151 120.217 300.743 119.705C301.351 119.177 301.655 118.505 301.655 117.689C301.655 117.049 301.479 116.529 301.127 116.129C300.775 115.729 300.335 115.425 299.807 115.217C299.279 115.009 298.567 114.785 297.671 114.545C296.567 114.257 295.679 113.969 295.007 113.681C294.351 113.393 293.783 112.945 293.303 112.337C292.839 111.713 292.607 110.881 292.607 109.841C292.607 108.929 292.839 108.121 293.303 107.417C293.767 106.713 294.415 106.169 295.247 105.785C296.095 105.401 297.063 105.209 298.151 105.209C299.719 105.209 300.999 105.601 301.991 106.385C302.999 107.169 303.567 108.209 303.695 109.505H301.295C301.215 108.865 300.879 108.305 300.287 107.825C299.695 107.329 298.911 107.081 297.935 107.081C297.023 107.081 296.279 107.321 295.703 107.801C295.127 108.265 294.839 108.921 294.839 109.769C294.839 110.377 295.007 110.873 295.343 111.257C295.695 111.641 296.119 111.937 296.615 112.145C297.127 112.337 297.839 112.561 298.751 112.817C299.855 113.121 300.743 113.425 301.415 113.729C302.087 114.017 302.663 114.473 303.143 115.097C303.623 115.705 303.863 116.537 303.863 117.593C303.863 118.409 303.647 119.177 303.215 119.897C302.783 120.617 302.143 121.201 301.295 121.649C300.447 122.097 299.447 122.321 298.295 122.321Z" fill="black"/>
<path d="M319.077 115.073C319.077 115.489 319.053 115.929 319.005 116.393H308.493C308.573 117.689 309.013 118.705 309.813 119.441C310.629 120.161 311.613 120.521 312.765 120.521C313.709 120.521 314.493 120.305 315.117 119.873C315.757 119.425 316.205 118.833 316.461 118.097H318.813C318.461 119.361 317.757 120.393 316.701 121.193C315.645 121.977 314.333 122.369 312.765 122.369C311.517 122.369 310.397 122.089 309.405 121.529C308.429 120.969 307.661 120.177 307.101 119.153C306.541 118.113 306.261 116.913 306.261 115.553C306.261 114.193 306.533 113.001 307.077 111.977C307.621 110.953 308.381 110.169 309.357 109.625C310.349 109.065 311.485 108.785 312.765 108.785C314.013 108.785 315.117 109.057 316.077 109.601C317.037 110.145 317.773 110.897 318.285 111.857C318.813 112.801 319.077 113.873 319.077 115.073ZM316.821 114.617C316.821 113.785 316.637 113.073 316.269 112.481C315.901 111.873 315.397 111.417 314.757 111.113C314.133 110.793 313.437 110.633 312.669 110.633C311.565 110.633 310.621 110.985 309.837 111.689C309.069 112.393 308.629 113.369 308.517 114.617H316.821Z" fill="black"/>
<path d="M321.144 115.529C321.144 114.185 321.416 113.009 321.96 112.001C322.504 110.977 323.248 110.185 324.192 109.625C325.152 109.065 326.216 108.785 327.384 108.785C328.536 108.785 329.536 109.033 330.384 109.529C331.232 110.025 331.864 110.649 332.28 111.401V109.001H334.488V122.153H332.28V119.705C331.848 120.473 331.2 121.113 330.336 121.625C329.488 122.121 328.496 122.369 327.36 122.369C326.192 122.369 325.136 122.081 324.192 121.505C323.248 120.929 322.504 120.121 321.96 119.081C321.416 118.041 321.144 116.857 321.144 115.529ZM332.28 115.553C332.28 114.561 332.08 113.697 331.68 112.961C331.28 112.225 330.736 111.665 330.048 111.281C329.376 110.881 328.632 110.681 327.816 110.681C327 110.681 326.256 110.873 325.584 111.257C324.912 111.641 324.376 112.201 323.976 112.937C323.576 113.673 323.376 114.537 323.376 115.529C323.376 116.537 323.576 117.417 323.976 118.169C324.376 118.905 324.912 119.473 325.584 119.873C326.256 120.257 327 120.449 327.816 120.449C328.632 120.449 329.376 120.257 330.048 119.873C330.736 119.473 331.28 118.905 331.68 118.169C332.08 117.417 332.28 116.545 332.28 115.553Z" fill="black"/>
<path d="M340.363 111.137C340.747 110.385 341.291 109.801 341.995 109.385C342.715 108.969 343.587 108.761 344.611 108.761V111.017H344.035C341.587 111.017 340.363 112.345 340.363 115.001V122.153H338.179V109.001H340.363V111.137Z" fill="black"/>
<path d="M346.316 115.553C346.316 114.193 346.588 113.009 347.132 112.001C347.676 110.977 348.428 110.185 349.388 109.625C350.364 109.065 351.476 108.785 352.724 108.785C354.34 108.785 355.668 109.177 356.708 109.961C357.764 110.745 358.46 111.833 358.796 113.225H356.444C356.22 112.425 355.78 111.793 355.124 111.329C354.484 110.865 353.684 110.633 352.724 110.633C351.476 110.633 350.468 111.065 349.7 111.929C348.932 112.777 348.548 113.985 348.548 115.553C348.548 117.137 348.932 118.361 349.7 119.225C350.468 120.089 351.476 120.521 352.724 120.521C353.684 120.521 354.484 120.297 355.124 119.849C355.764 119.401 356.204 118.761 356.444 117.929H358.796C358.444 119.273 357.74 120.353 356.684 121.169C355.628 121.969 354.308 122.369 352.724 122.369C351.476 122.369 350.364 122.089 349.388 121.529C348.428 120.969 347.676 120.177 347.132 119.153C346.588 118.129 346.316 116.929 346.316 115.553Z" fill="black"/>
<path d="M368.238 108.761C369.23 108.761 370.126 108.977 370.926 109.409C371.726 109.825 372.35 110.457 372.798 111.305C373.262 112.153 373.494 113.185 373.494 114.401V122.153H371.334V114.713C371.334 113.401 371.006 112.401 370.35 111.713C369.694 111.009 368.798 110.657 367.662 110.657C366.51 110.657 365.59 111.017 364.902 111.737C364.23 112.457 363.894 113.505 363.894 114.881V122.153H361.71V104.393H363.894V110.873C364.326 110.201 364.918 109.681 365.67 109.313C366.438 108.945 367.294 108.761 368.238 108.761Z" fill="black"/>
<path d="M395.172 105.425L389.724 115.841V122.153H387.54V115.841L382.068 105.425H384.492L388.62 113.897L392.748 105.425H395.172Z" fill="black"/>
<path d="M403.212 122.369C401.98 122.369 400.86 122.089 399.852 121.529C398.86 120.969 398.076 120.177 397.5 119.153C396.94 118.113 396.66 116.913 396.66 115.553C396.66 114.209 396.948 113.025 397.524 112.001C398.116 110.961 398.916 110.169 399.924 109.625C400.932 109.065 402.06 108.785 403.308 108.785C404.556 108.785 405.684 109.065 406.692 109.625C407.7 110.169 408.492 110.953 409.068 111.977C409.66 113.001 409.956 114.193 409.956 115.553C409.956 116.913 409.652 118.113 409.044 119.153C408.452 120.177 407.644 120.969 406.62 121.529C405.596 122.089 404.46 122.369 403.212 122.369ZM403.212 120.449C403.996 120.449 404.732 120.265 405.42 119.897C406.108 119.529 406.66 118.977 407.076 118.241C407.508 117.505 407.724 116.609 407.724 115.553C407.724 114.497 407.516 113.601 407.1 112.865C406.684 112.129 406.14 111.585 405.468 111.233C404.796 110.865 404.068 110.681 403.284 110.681C402.484 110.681 401.748 110.865 401.076 111.233C400.42 111.585 399.892 112.129 399.492 112.865C399.092 113.601 398.892 114.497 398.892 115.553C398.892 116.625 399.084 117.529 399.468 118.265C399.868 119.001 400.396 119.553 401.052 119.921C401.708 120.273 402.428 120.449 403.212 120.449Z" fill="black"/>
<path d="M424.491 109.001V122.153H422.307V120.209C421.891 120.881 421.307 121.409 420.555 121.793C419.819 122.161 419.003 122.345 418.107 122.345C417.083 122.345 416.163 122.137 415.347 121.721C414.531 121.289 413.883 120.649 413.403 119.801C412.939 118.953 412.707 117.921 412.707 116.705V109.001H414.867V116.417C414.867 117.713 415.195 118.713 415.851 119.417C416.507 120.105 417.403 120.449 418.539 120.449C419.707 120.449 420.627 120.089 421.299 119.369C421.971 118.649 422.307 117.601 422.307 116.225V109.001H424.491Z" fill="black"/>
<path d="M439.881 122.321C438.777 122.321 437.785 122.129 436.905 121.745C436.041 121.345 435.361 120.801 434.865 120.113C434.369 119.409 434.113 118.601 434.097 117.689H436.425C436.505 118.473 436.825 119.137 437.385 119.681C437.961 120.209 438.793 120.473 439.881 120.473C440.921 120.473 441.737 120.217 442.329 119.705C442.937 119.177 443.241 118.505 443.241 117.689C443.241 117.049 443.065 116.529 442.713 116.129C442.361 115.729 441.921 115.425 441.393 115.217C440.865 115.009 440.153 114.785 439.257 114.545C438.153 114.257 437.265 113.969 436.593 113.681C435.937 113.393 435.369 112.945 434.889 112.337C434.425 111.713 434.193 110.881 434.193 109.841C434.193 108.929 434.425 108.121 434.889 107.417C435.353 106.713 436.001 106.169 436.833 105.785C437.681 105.401 438.649 105.209 439.737 105.209C441.305 105.209 442.585 105.601 443.577 106.385C444.585 107.169 445.153 108.209 445.281 109.505H442.881C442.801 108.865 442.465 108.305 441.873 107.825C441.281 107.329 440.497 107.081 439.521 107.081C438.609 107.081 437.865 107.321 437.289 107.801C436.713 108.265 436.425 108.921 436.425 109.769C436.425 110.377 436.593 110.873 436.929 111.257C437.281 111.641 437.705 111.937 438.201 112.145C438.713 112.337 439.425 112.561 440.337 112.817C441.441 113.121 442.329 113.425 443.001 113.729C443.673 114.017 444.249 114.473 444.729 115.097C445.209 115.705 445.449 116.537 445.449 117.593C445.449 118.409 445.233 119.177 444.801 119.897C444.369 120.617 443.729 121.201 442.881 121.649C442.033 122.097 441.033 122.321 439.881 122.321Z" fill="black"/>
<path d="M455.191 108.761C456.183 108.761 457.079 108.977 457.879 109.409C458.679 109.825 459.303 110.457 459.751 111.305C460.215 112.153 460.447 113.185 460.447 114.401V122.153H458.287V114.713C458.287 113.401 457.959 112.401 457.303 111.713C456.647 111.009 455.751 110.657 454.615 110.657C453.463 110.657 452.543 111.017 451.855 111.737C451.183 112.457 450.847 113.505 450.847 114.881V122.153H448.663V104.393H450.847V110.873C451.279 110.201 451.871 109.681 452.623 109.313C453.391 108.945 454.247 108.761 455.191 108.761Z" fill="black"/>
<path d="M469.751 122.369C468.519 122.369 467.399 122.089 466.391 121.529C465.399 120.969 464.615 120.177 464.039 119.153C463.479 118.113 463.199 116.913 463.199 115.553C463.199 114.209 463.487 113.025 464.063 112.001C464.655 110.961 465.455 110.169 466.463 109.625C467.471 109.065 468.599 108.785 469.847 108.785C471.095 108.785 472.223 109.065 473.231 109.625C474.239 110.169 475.031 110.953 475.607 111.977C476.199 113.001 476.495 114.193 476.495 115.553C476.495 116.913 476.191 118.113 475.583 119.153C474.991 120.177 474.183 120.969 473.159 121.529C472.135 122.089 470.999 122.369 469.751 122.369ZM469.751 120.449C470.535 120.449 471.271 120.265 471.959 119.897C472.647 119.529 473.199 118.977 473.615 118.241C474.047 117.505 474.263 116.609 474.263 115.553C474.263 114.497 474.055 113.601 473.639 112.865C473.223 112.129 472.679 111.585 472.007 111.233C471.335 110.865 470.607 110.681 469.823 110.681C469.023 110.681 468.287 110.865 467.615 111.233C466.959 111.585 466.431 112.129 466.031 112.865C465.631 113.601 465.431 114.497 465.431 115.553C465.431 116.625 465.623 117.529 466.007 118.265C466.407 119.001 466.935 119.553 467.591 119.921C468.247 120.273 468.967 120.449 469.751 120.449Z" fill="black"/>
<path d="M481.55 111.425C481.982 110.673 482.622 110.049 483.47 109.553C484.334 109.041 485.334 108.785 486.47 108.785C487.638 108.785 488.694 109.065 489.638 109.625C490.598 110.185 491.35 110.977 491.894 112.001C492.438 113.009 492.71 114.185 492.71 115.529C492.71 116.857 492.438 118.041 491.894 119.081C491.35 120.121 490.598 120.929 489.638 121.505C488.694 122.081 487.638 122.369 486.47 122.369C485.35 122.369 484.358 122.121 483.494 121.625C482.646 121.113 481.998 120.481 481.55 119.729V128.393H479.366V109.001H481.55V111.425ZM490.478 115.529C490.478 114.537 490.278 113.673 489.878 112.937C489.478 112.201 488.934 111.641 488.246 111.257C487.574 110.873 486.83 110.681 486.014 110.681C485.214 110.681 484.47 110.881 483.782 111.281C483.11 111.665 482.566 112.233 482.15 112.985C481.75 113.721 481.55 114.577 481.55 115.553C481.55 116.545 481.75 117.417 482.15 118.169C482.566 118.905 483.11 119.473 483.782 119.873C484.47 120.257 485.214 120.449 486.014 120.449C486.83 120.449 487.574 120.257 488.246 119.873C488.934 119.473 489.478 118.905 489.878 118.169C490.278 117.417 490.478 116.537 490.478 115.529Z" fill="black"/>
<path d="M130.162 49.0628V119.006C130.162 127.84 123.013 135 114.181 135H30.5127L60.3062 106.637L67.0104 119.602L82.459 75.1443L36.938 88.0076L49.9015 95.7256L16.5582 127.472C15.0133 125.026 14.1262 122.124 14.1262 119.006V49.0628C14.1262 48.9614 14.1262 48.86 14.1389 48.7586C14.2644 41.4335 19.3476 35.2997 26.1911 33.5761C27.4458 33.2466 28.7625 33.0818 30.1198 33.0818H114.181C115.537 33.0818 116.841 33.2466 118.097 33.5761C124.94 35.287 130.023 41.4196 130.148 48.7586C130.162 48.86 130.162 48.9614 130.162 49.0628Z" fill="#F30C0C"/>
<path d="M20.6135 48.7637H0L25.0783 -0.000434875H38.5259L20.6135 48.7637Z" fill="#FF2525"/>
<path d="M41.2263 48.7637H20.6133L38.5256 -0.000434875H51.9745L41.2263 48.7637Z" fill="#FF9F9F"/>
<path d="M61.8428 48.7637H41.2285L51.9767 -0.000434875H65.4255L61.8428 48.7637Z" fill="#FF2525"/>
<path d="M82.4551 48.7637H61.8408L65.4235 -0.000434875H78.8711L82.4551 48.7637Z" fill="#FF9F9F"/>
<path d="M103.069 48.7637H82.4556L78.8716 -0.000434875H92.3204L103.069 48.7637Z" fill="#FF2525"/>
<path d="M144.296 48.7637H123.682L105.77 -0.000434875H119.218L144.296 48.7637Z" fill="#FF2525"/>
<path d="M123.682 48.7637H103.069L92.3208 -0.000434875H105.77L123.682 48.7637Z" fill="#FF9F9F"/>
<path d="M20.6135 48.7632C20.6135 54.456 15.9992 59.0703 10.3069 59.0703C4.61433 59.0703 0 54.456 0 48.7632H20.6135Z" fill="#FF2525"/>
<path d="M41.2263 48.7632C41.2263 54.456 36.612 59.0703 30.9192 59.0703C25.2276 59.0703 20.6133 54.456 20.6133 48.7632H41.2263Z" fill="#FF7878"/>
<path d="M61.8428 48.7632C61.8428 54.456 57.2285 59.0703 51.5357 59.0703C45.8429 59.0703 41.2285 54.456 41.2285 48.7632H61.8428Z" fill="#FF2525"/>
<path d="M82.4551 48.7632C82.4551 54.456 77.8395 59.0703 72.148 59.0703C66.4551 59.0703 61.8408 54.456 61.8408 48.7632H82.4551Z" fill="#FF7878"/>
<path d="M103.069 48.7632C103.069 54.456 98.4545 59.0703 92.7617 59.0703C87.0701 59.0703 82.4558 54.456 82.4558 48.7632H103.069Z" fill="#FF2525"/>
<path d="M123.682 48.7632C123.682 54.456 119.068 59.0703 113.375 59.0703C107.683 59.0703 103.069 54.456 103.069 48.7632H123.682Z" fill="#FF7878"/>
<path d="M144.298 48.7632C144.298 54.456 139.684 59.0703 133.991 59.0703C128.298 59.0703 123.684 54.456 123.684 48.7632H144.298Z" fill="#FF2525"/>
</svg>
