<svg width="369" height="309" viewBox="0 0 369 309" fill="none" xmlns="http://www.w3.org/2000/svg">
<path d="M20.202 242.696C16.406 242.696 12.974 242.046 9.906 240.746C6.89 239.446 4.498 237.574 2.73 235.13C0.962 232.686 0.0519999 229.8 0 226.472H11.7C11.856 228.708 12.636 230.476 14.04 231.776C15.496 233.076 17.472 233.726 19.968 233.726C22.516 233.726 24.518 233.128 25.974 231.932C27.43 230.684 28.158 229.072 28.158 227.096C28.158 225.484 27.664 224.158 26.676 223.118C25.688 222.078 24.44 221.272 22.932 220.7C21.476 220.076 19.448 219.4 16.848 218.672C13.312 217.632 10.426 216.618 8.19 215.63C6.006 214.59 4.108 213.056 2.496 211.028C0.936 208.948 0.156 206.192 0.156 202.76C0.156 199.536 0.962 196.728 2.574 194.336C4.186 191.944 6.448 190.124 9.36 188.876C12.272 187.576 15.6 186.926 19.344 186.926C24.96 186.926 29.51 188.304 32.994 191.06C36.53 193.764 38.48 197.56 38.844 202.448H26.832C26.728 200.576 25.922 199.042 24.414 197.846C22.958 196.598 21.008 195.974 18.564 195.974C16.432 195.974 14.716 196.52 13.416 197.612C12.168 198.704 11.544 200.29 11.544 202.37C11.544 203.826 12.012 205.048 12.948 206.036C13.936 206.972 15.132 207.752 16.536 208.376C17.992 208.948 20.02 209.624 22.62 210.404C26.156 211.444 29.042 212.484 31.278 213.524C33.514 214.564 35.438 216.124 37.05 218.204C38.662 220.284 39.468 223.014 39.468 226.394C39.468 229.306 38.714 232.01 37.206 234.506C35.698 237.002 33.488 239.004 30.576 240.512C27.664 241.968 24.206 242.696 20.202 242.696Z" fill="#FF2525"/>
<path d="M73.2713 198.314C76.5473 198.314 79.4593 199.042 82.0073 200.498C84.5553 201.902 86.5313 204.008 87.9353 206.816C89.3913 209.572 90.1193 212.9 90.1193 216.8V242.15H79.1993V218.282C79.1993 214.85 78.3413 212.224 76.6253 210.404C74.9093 208.532 72.5693 207.596 69.6053 207.596C66.5893 207.596 64.1972 208.532 62.4292 210.404C60.7132 212.224 59.8553 214.85 59.8553 218.282V242.15H48.9352V184.43H59.8553V204.32C61.2593 202.448 63.1313 200.992 65.4713 199.952C67.8113 198.86 70.4113 198.314 73.2713 198.314Z" fill="#FF2525"/>
<path d="M119.692 242.852C115.532 242.852 111.788 241.942 108.46 240.122C105.132 238.25 102.506 235.624 100.582 232.244C98.7096 228.864 97.7736 224.964 97.7736 220.544C97.7736 216.124 98.7356 212.224 100.66 208.844C102.636 205.464 105.314 202.864 108.694 201.044C112.074 199.172 115.844 198.236 120.004 198.236C124.164 198.236 127.934 199.172 131.314 201.044C134.694 202.864 137.346 205.464 139.27 208.844C141.246 212.224 142.234 216.124 142.234 220.544C142.234 224.964 141.22 228.864 139.192 232.244C137.216 235.624 134.512 238.25 131.08 240.122C127.7 241.942 123.904 242.852 119.692 242.852ZM119.692 233.336C121.668 233.336 123.514 232.868 125.23 231.932C126.998 230.944 128.402 229.488 129.442 227.564C130.482 225.64 131.002 223.3 131.002 220.544C131.002 216.436 129.91 213.29 127.726 211.106C125.594 208.87 122.968 207.752 119.848 207.752C116.728 207.752 114.102 208.87 111.97 211.106C109.89 213.29 108.85 216.436 108.85 220.544C108.85 224.652 109.864 227.824 111.892 230.06C113.972 232.244 116.572 233.336 119.692 233.336Z" fill="#FF2525"/>
<path d="M161.164 205.178C162.568 203.202 164.492 201.564 166.936 200.264C169.432 198.912 172.266 198.236 175.438 198.236C179.13 198.236 182.458 199.146 185.422 200.966C188.438 202.786 190.804 205.386 192.52 208.766C194.288 212.094 195.172 215.968 195.172 220.388C195.172 224.808 194.288 228.734 192.52 232.166C190.804 235.546 188.438 238.172 185.422 240.044C182.458 241.916 179.13 242.852 175.438 242.852C172.266 242.852 169.458 242.202 167.014 240.902C164.622 239.602 162.672 237.964 161.164 235.988V262.742H150.244V198.938H161.164V205.178ZM184.018 220.388C184.018 217.788 183.472 215.552 182.38 213.68C181.34 211.756 179.936 210.3 178.168 209.312C176.452 208.324 174.58 207.83 172.552 207.83C170.576 207.83 168.704 208.35 166.936 209.39C165.22 210.378 163.816 211.834 162.724 213.758C161.684 215.682 161.164 217.944 161.164 220.544C161.164 223.144 161.684 225.406 162.724 227.33C163.816 229.254 165.22 230.736 166.936 231.776C168.704 232.764 170.576 233.258 172.552 233.258C174.58 233.258 176.452 232.738 178.168 231.698C179.936 230.658 181.34 229.176 182.38 227.252C183.472 225.328 184.018 223.04 184.018 220.388Z" fill="#FF2525"/>
<path d="M233.839 242.15L214.027 217.892V242.15H203.107V187.706H214.027V212.12L233.839 187.706H247.021L224.557 214.694L247.645 242.15H233.839Z" fill="#FF2525"/>
<path d="M279.164 198.314C282.44 198.314 285.352 199.042 287.9 200.498C290.448 201.902 292.424 204.008 293.828 206.816C295.284 209.572 296.012 212.9 296.012 216.8V242.15H285.092V218.282C285.092 214.85 284.234 212.224 282.518 210.404C280.802 208.532 278.462 207.596 275.498 207.596C272.482 207.596 270.09 208.532 268.322 210.404C266.606 212.224 265.748 214.85 265.748 218.282V242.15H254.828V184.43H265.748V204.32C267.152 202.448 269.024 200.992 271.364 199.952C273.704 198.86 276.304 198.314 279.164 198.314Z" fill="#FF2525"/>
<path d="M325.584 242.852C321.424 242.852 317.68 241.942 314.352 240.122C311.024 238.25 308.398 235.624 306.474 232.244C304.602 228.864 303.666 224.964 303.666 220.544C303.666 216.124 304.628 212.224 306.552 208.844C308.528 205.464 311.206 202.864 314.586 201.044C317.966 199.172 321.736 198.236 325.896 198.236C330.056 198.236 333.826 199.172 337.206 201.044C340.586 202.864 343.238 205.464 345.162 208.844C347.138 212.224 348.126 216.124 348.126 220.544C348.126 224.964 347.112 228.864 345.084 232.244C343.108 235.624 340.404 238.25 336.972 240.122C333.592 241.942 329.796 242.852 325.584 242.852ZM325.584 233.336C327.56 233.336 329.406 232.868 331.122 231.932C332.89 230.944 334.294 229.488 335.334 227.564C336.374 225.64 336.894 223.3 336.894 220.544C336.894 216.436 335.802 213.29 333.618 211.106C331.486 208.87 328.86 207.752 325.74 207.752C322.62 207.752 319.994 208.87 317.862 211.106C315.782 213.29 314.742 216.436 314.742 220.544C314.742 224.652 315.756 227.824 317.784 230.06C319.864 232.244 322.464 233.336 325.584 233.336Z" fill="#FF2525"/>
<path d="M361.674 193.79C359.698 193.79 358.06 193.192 356.76 191.996C355.512 190.748 354.888 189.214 354.888 187.394C354.888 185.574 355.512 184.066 356.76 182.87C358.06 181.622 359.698 180.998 361.674 180.998C363.598 180.998 365.184 181.622 366.432 182.87C367.68 184.066 368.304 185.574 368.304 187.394C368.304 189.214 367.68 190.748 366.432 191.996C365.184 193.192 363.598 193.79 361.674 193.79ZM367.056 249.248C367.056 254.032 365.86 257.464 363.468 259.544C361.128 261.676 357.748 262.742 353.328 262.742H348.492V253.46H351.612C353.276 253.46 354.446 253.122 355.122 252.446C355.798 251.822 356.136 250.782 356.136 249.326V198.938H367.056V249.248Z" fill="#FF2525"/>
<path d="M33.4286 274.548L26.1678 299.64H22.5014L16.6784 279.444L10.6397 299.64L7.00923 299.676L0 274.548H3.48664L8.95025 295.824L14.989 274.548H18.6553L24.4065 295.752L29.906 274.548H33.4286Z" fill="white"/>
<path d="M54.9806 289.02C54.9806 289.644 54.9447 290.304 54.8728 291H39.129C39.2488 292.944 39.9078 294.468 41.1059 295.572C42.3281 296.652 43.8018 297.192 45.5271 297.192C46.941 297.192 48.1152 296.868 49.0497 296.22C50.0082 295.548 50.6792 294.66 51.0626 293.556H54.5852C54.058 295.452 53.0036 297 51.4221 298.2C49.8405 299.376 47.8755 299.964 45.5271 299.964C43.658 299.964 41.9806 299.544 40.4949 298.704C39.0331 297.864 37.8829 296.676 37.0442 295.14C36.2055 293.58 35.7861 291.78 35.7861 289.74C35.7861 287.7 36.1935 285.912 37.0082 284.376C37.823 282.84 38.9612 281.664 40.423 280.848C41.9087 280.008 43.6101 279.588 45.5271 279.588C47.3963 279.588 49.0497 279.996 50.4875 280.812C51.9253 281.628 53.0276 282.756 53.7944 284.196C54.5852 285.612 54.9806 287.22 54.9806 289.02ZM51.6018 288.336C51.6018 287.088 51.3262 286.02 50.7751 285.132C50.2239 284.22 49.4691 283.536 48.5106 283.08C47.576 282.6 46.5336 282.36 45.3834 282.36C43.7299 282.36 42.3161 282.888 41.1419 283.944C39.9916 285 39.3327 286.464 39.1649 288.336H51.6018Z" fill="white"/>
<path d="M76.8249 299.892C75.1715 299.892 73.6857 299.604 72.3678 299.028C71.0738 298.428 70.0553 297.612 69.3125 296.58C68.5696 295.524 68.1862 294.312 68.1622 292.944H71.6489C71.7687 294.12 72.2479 295.116 73.0867 295.932C73.9493 296.724 75.1954 297.12 76.8249 297.12C78.3825 297.12 79.6046 296.736 80.4913 295.968C81.4019 295.176 81.8572 294.168 81.8572 292.944C81.8572 291.984 81.5936 291.204 81.0664 290.604C80.5392 290.004 79.8802 289.548 79.0894 289.236C78.2987 288.924 77.2323 288.588 75.8904 288.228C74.2369 287.796 72.9069 287.364 71.9005 286.932C70.918 286.5 70.0673 285.828 69.3484 284.916C68.6535 283.98 68.306 282.732 68.306 281.172C68.306 279.804 68.6535 278.592 69.3484 277.536C70.0433 276.48 71.0139 275.664 72.2599 275.088C73.53 274.512 74.9798 274.224 76.6093 274.224C78.9576 274.224 80.8747 274.812 82.3604 275.988C83.8701 277.164 84.7208 278.724 84.9125 280.668H81.318C81.1982 279.708 80.695 278.868 79.8083 278.148C78.9217 277.404 77.7475 277.032 76.2857 277.032C74.9198 277.032 73.8056 277.392 72.9429 278.112C72.0802 278.808 71.6489 279.792 71.6489 281.064C71.6489 281.976 71.9005 282.72 72.4037 283.296C72.9309 283.872 73.5659 284.316 74.3088 284.628C75.0756 284.916 76.142 285.252 77.5079 285.636C79.1613 286.092 80.4913 286.548 81.4977 287.004C82.5042 287.436 83.3669 288.12 84.0858 289.056C84.8047 289.968 85.1641 291.216 85.1641 292.8C85.1641 294.024 84.8406 295.176 84.1936 296.256C83.5466 297.336 82.5881 298.212 81.318 298.884C80.048 299.556 78.5503 299.892 76.8249 299.892Z" fill="white"/>
<path d="M107.95 289.02C107.95 289.644 107.914 290.304 107.842 291H92.0984C92.2182 292.944 92.8772 294.468 94.0753 295.572C95.2974 296.652 96.7712 297.192 98.4965 297.192C99.9104 297.192 101.085 296.868 102.019 296.22C102.978 295.548 103.649 294.66 104.032 293.556H107.555C107.027 295.452 105.973 297 104.391 298.2C102.81 299.376 100.845 299.964 98.4965 299.964C96.6274 299.964 94.95 299.544 93.4643 298.704C92.0025 297.864 90.8523 296.676 90.0136 295.14C89.1749 293.58 88.7555 291.78 88.7555 289.74C88.7555 287.7 89.1629 285.912 89.9776 284.376C90.7924 282.84 91.9306 281.664 93.3924 280.848C94.8781 280.008 96.5795 279.588 98.4965 279.588C100.366 279.588 102.019 279.996 103.457 280.812C104.895 281.628 105.997 282.756 106.764 284.196C107.555 285.612 107.95 287.22 107.95 289.02ZM104.571 288.336C104.571 287.088 104.296 286.02 103.744 285.132C103.193 284.22 102.438 283.536 101.48 283.08C100.545 282.6 99.503 282.36 98.3527 282.36C96.6993 282.36 95.2855 282.888 94.1113 283.944C92.961 285 92.302 286.464 92.1343 288.336H104.571Z" fill="white"/>
<path d="M111.045 289.704C111.045 287.688 111.453 285.924 112.268 284.412C113.082 282.876 114.197 281.688 115.61 280.848C117.048 280.008 118.642 279.588 120.391 279.588C122.116 279.588 123.614 279.96 124.884 280.704C126.154 281.448 127.101 282.384 127.724 283.512V279.912H131.031V299.64H127.724V295.968C127.077 297.12 126.106 298.08 124.812 298.848C123.542 299.592 122.057 299.964 120.355 299.964C118.606 299.964 117.024 299.532 115.61 298.668C114.197 297.804 113.082 296.592 112.268 295.032C111.453 293.472 111.045 291.696 111.045 289.704ZM127.724 289.74C127.724 288.252 127.424 286.956 126.825 285.852C126.226 284.748 125.411 283.908 124.381 283.332C123.375 282.732 122.26 282.432 121.038 282.432C119.816 282.432 118.702 282.72 117.695 283.296C116.689 283.872 115.886 284.712 115.287 285.816C114.688 286.92 114.388 288.216 114.388 289.704C114.388 291.216 114.688 292.536 115.287 293.664C115.886 294.768 116.689 295.62 117.695 296.22C118.702 296.796 119.816 297.084 121.038 297.084C122.26 297.084 123.375 296.796 124.381 296.22C125.411 295.62 126.226 294.768 126.825 293.664C127.424 292.536 127.724 291.228 127.724 289.74Z" fill="white"/>
<path d="M139.829 283.116C140.404 281.988 141.219 281.112 142.274 280.488C143.352 279.864 144.658 279.552 146.192 279.552V282.936H145.329C141.663 282.936 139.829 284.928 139.829 288.912V299.64H136.558V279.912H139.829V283.116Z" fill="white"/>
<path d="M148.745 289.74C148.745 287.7 149.153 285.924 149.967 284.412C150.782 282.876 151.908 281.688 153.346 280.848C154.808 280.008 156.473 279.588 158.343 279.588C160.763 279.588 162.752 280.176 164.309 281.352C165.891 282.528 166.933 284.16 167.437 286.248H163.914C163.579 285.048 162.92 284.1 161.937 283.404C160.979 282.708 159.78 282.36 158.343 282.36C156.473 282.36 154.964 283.008 153.814 284.304C152.663 285.576 152.088 287.388 152.088 289.74C152.088 292.116 152.663 293.952 153.814 295.248C154.964 296.544 156.473 297.192 158.343 297.192C159.78 297.192 160.979 296.856 161.937 296.184C162.896 295.512 163.555 294.552 163.914 293.304H167.437C166.909 295.32 165.855 296.94 164.273 298.164C162.692 299.364 160.715 299.964 158.343 299.964C156.473 299.964 154.808 299.544 153.346 298.704C151.908 297.864 150.782 296.676 149.967 295.14C149.153 293.604 148.745 291.804 148.745 289.74Z" fill="white"/>
<path d="M181.578 279.552C183.064 279.552 184.406 279.876 185.604 280.524C186.802 281.148 187.737 282.096 188.408 283.368C189.103 284.64 189.45 286.188 189.45 288.012V299.64H186.215V288.48C186.215 286.512 185.724 285.012 184.741 283.98C183.759 282.924 182.417 282.396 180.715 282.396C178.99 282.396 177.612 282.936 176.582 284.016C175.575 285.096 175.072 286.668 175.072 288.732V299.64H171.801V273H175.072V282.72C175.719 281.712 176.606 280.932 177.732 280.38C178.882 279.828 180.164 279.552 181.578 279.552Z" fill="white"/>
<path d="M221.917 274.548L213.758 290.172V299.64H210.487V290.172L202.291 274.548H205.922L212.104 287.256L218.287 274.548H221.917Z" fill="white"/>
<path d="M233.958 299.964C232.113 299.964 230.435 299.544 228.926 298.704C227.44 297.864 226.266 296.676 225.403 295.14C224.564 293.58 224.145 291.78 224.145 289.74C224.145 287.724 224.576 285.948 225.439 284.412C226.326 282.852 227.524 281.664 229.034 280.848C230.543 280.008 232.233 279.588 234.102 279.588C235.971 279.588 237.66 280.008 239.17 280.848C240.68 281.664 241.866 282.84 242.729 284.376C243.615 285.912 244.059 287.7 244.059 289.74C244.059 291.78 243.603 293.58 242.693 295.14C241.806 296.676 240.596 297.864 239.062 298.704C237.529 299.544 235.827 299.964 233.958 299.964ZM233.958 297.084C235.132 297.084 236.235 296.808 237.265 296.256C238.295 295.704 239.122 294.876 239.745 293.772C240.392 292.668 240.716 291.324 240.716 289.74C240.716 288.156 240.404 286.812 239.781 285.708C239.158 284.604 238.343 283.788 237.337 283.26C236.33 282.708 235.24 282.432 234.066 282.432C232.868 282.432 231.765 282.708 230.759 283.26C229.776 283.788 228.986 284.604 228.387 285.708C227.788 286.812 227.488 288.156 227.488 289.74C227.488 291.348 227.776 292.704 228.351 293.808C228.95 294.912 229.741 295.74 230.723 296.292C231.705 296.82 232.784 297.084 233.958 297.084Z" fill="white"/>
<path d="M265.828 279.912V299.64H262.557V296.724C261.934 297.732 261.06 298.524 259.933 299.1C258.831 299.652 257.609 299.928 256.267 299.928C254.733 299.928 253.356 299.616 252.133 298.992C250.911 298.344 249.941 297.384 249.222 296.112C248.527 294.84 248.18 293.292 248.18 291.468V279.912H251.415V291.036C251.415 292.98 251.906 294.48 252.888 295.536C253.871 296.568 255.213 297.084 256.914 297.084C258.663 297.084 260.041 296.544 261.048 295.464C262.054 294.384 262.557 292.812 262.557 290.748V279.912H265.828Z" fill="white"/>
<path d="M288.878 299.892C287.225 299.892 285.739 299.604 284.421 299.028C283.127 298.428 282.108 297.612 281.366 296.58C280.623 295.524 280.239 294.312 280.215 292.944H283.702C283.822 294.12 284.301 295.116 285.14 295.932C286.002 296.724 287.248 297.12 288.878 297.12C290.436 297.12 291.658 296.736 292.544 295.968C293.455 295.176 293.91 294.168 293.91 292.944C293.91 291.984 293.647 291.204 293.119 290.604C292.592 290.004 291.933 289.548 291.143 289.236C290.352 288.924 289.285 288.588 287.943 288.228C286.29 287.796 284.96 287.364 283.954 286.932C282.971 286.5 282.12 285.828 281.401 284.916C280.707 283.98 280.359 282.732 280.359 281.172C280.359 279.804 280.707 278.592 281.401 277.536C282.096 276.48 283.067 275.664 284.313 275.088C285.583 274.512 287.033 274.224 288.662 274.224C291.011 274.224 292.928 274.812 294.413 275.988C295.923 277.164 296.774 278.724 296.966 280.668H293.371C293.251 279.708 292.748 278.868 291.861 278.148C290.975 277.404 289.801 277.032 288.339 277.032C286.973 277.032 285.859 277.392 284.996 278.112C284.133 278.808 283.702 279.792 283.702 281.064C283.702 281.976 283.954 282.72 284.457 283.296C284.984 283.872 285.619 284.316 286.362 284.628C287.129 284.916 288.195 285.252 289.561 285.636C291.214 286.092 292.544 286.548 293.551 287.004C294.557 287.436 295.42 288.12 296.139 289.056C296.858 289.968 297.217 291.216 297.217 292.8C297.217 294.024 296.894 295.176 296.247 296.256C295.6 297.336 294.641 298.212 293.371 298.884C292.101 299.556 290.603 299.892 288.878 299.892Z" fill="white"/>
<path d="M311.808 279.552C313.293 279.552 314.635 279.876 315.833 280.524C317.032 281.148 317.966 282.096 318.637 283.368C319.332 284.64 319.68 286.188 319.68 288.012V299.64H316.445V288.48C316.445 286.512 315.953 285.012 314.971 283.98C313.988 282.924 312.646 282.396 310.945 282.396C309.22 282.396 307.842 282.936 306.811 284.016C305.805 285.096 305.302 286.668 305.302 288.732V299.64H302.031V273H305.302V282.72C305.949 281.712 306.835 280.932 307.962 280.38C309.112 279.828 310.394 279.552 311.808 279.552Z" fill="white"/>
<path d="M333.613 299.964C331.768 299.964 330.091 299.544 328.581 298.704C327.096 297.864 325.921 296.676 325.059 295.14C324.22 293.58 323.801 291.78 323.801 289.74C323.801 287.724 324.232 285.948 325.095 284.412C325.981 282.852 327.179 281.664 328.689 280.848C330.199 280.008 331.888 279.588 333.757 279.588C335.626 279.588 337.316 280.008 338.825 280.848C340.335 281.664 341.521 282.84 342.384 284.376C343.271 285.912 343.714 287.7 343.714 289.74C343.714 291.78 343.259 293.58 342.348 295.14C341.461 296.676 340.251 297.864 338.718 298.704C337.184 299.544 335.483 299.964 333.613 299.964ZM333.613 297.084C334.788 297.084 335.89 296.808 336.92 296.256C337.951 295.704 338.778 294.876 339.401 293.772C340.048 292.668 340.371 291.324 340.371 289.74C340.371 288.156 340.06 286.812 339.437 285.708C338.814 284.604 337.999 283.788 336.992 283.26C335.986 282.708 334.896 282.432 333.721 282.432C332.523 282.432 331.421 282.708 330.414 283.26C329.432 283.788 328.641 284.604 328.042 285.708C327.443 286.812 327.143 288.156 327.143 289.74C327.143 291.348 327.431 292.704 328.006 293.808C328.605 294.912 329.396 295.74 330.378 296.292C331.361 296.82 332.439 297.084 333.613 297.084Z" fill="white"/>
<path d="M351.286 283.548C351.933 282.42 352.891 281.484 354.161 280.74C355.455 279.972 356.953 279.588 358.654 279.588C360.404 279.588 361.985 280.008 363.399 280.848C364.837 281.688 365.963 282.876 366.778 284.412C367.593 285.924 368 287.688 368 289.704C368 291.696 367.593 293.472 366.778 295.032C365.963 296.592 364.837 297.804 363.399 298.668C361.985 299.532 360.404 299.964 358.654 299.964C356.977 299.964 355.491 299.592 354.197 298.848C352.927 298.08 351.957 297.132 351.286 296.004V309H348.015V279.912H351.286V283.548ZM364.657 289.704C364.657 288.216 364.358 286.92 363.759 285.816C363.159 284.712 362.345 283.872 361.314 283.296C360.308 282.72 359.194 282.432 357.971 282.432C356.773 282.432 355.659 282.732 354.629 283.332C353.622 283.908 352.807 284.76 352.184 285.888C351.585 286.992 351.286 288.276 351.286 289.74C351.286 291.228 351.585 292.536 352.184 293.664C352.807 294.768 353.622 295.62 354.629 296.22C355.659 296.796 356.773 297.084 357.971 297.084C359.194 297.084 360.308 296.796 361.314 296.22C362.345 295.62 363.159 294.768 363.759 293.664C364.358 292.536 364.657 291.216 364.657 289.704Z" fill="white"/>
<path d="M246.767 53.0604V128.703C246.767 138.256 239.036 146 229.484 146H138.998L171.219 115.326L178.47 129.347L195.177 81.2671L145.947 95.1786L159.967 103.525L123.907 137.859C122.236 135.213 121.276 132.075 121.276 128.703V53.0604C121.276 52.9507 121.276 52.8411 121.29 52.7314C121.426 44.8094 126.923 38.1758 134.324 36.3118C135.681 35.9554 137.105 35.7773 138.573 35.7773H229.484C230.951 35.7773 232.361 35.9554 233.719 36.3118C241.119 38.1621 246.617 44.7944 246.752 52.7314C246.767 52.8411 246.767 52.9507 246.767 53.0604" fill="#F30C0C"/>
<path d="M128.293 52.7383H106L133.122 0.000732158H147.665L128.293 52.7383Z" fill="#FF2525"/>
<path d="M150.587 52.7383H128.294L147.666 0.000732158H162.211L150.587 52.7383Z" fill="#FF9F9F"/>
<path d="M172.88 52.7383H150.586L162.21 0.000732158H176.755L172.88 52.7383" fill="#FF2525"/>
<path d="M195.174 52.7383H172.88L176.755 0.000732158H191.298L195.174 52.7383" fill="#FF9F9F"/>
<path d="M217.467 52.7383H195.175L191.299 0.000732158H205.844L217.467 52.7383" fill="#FF2525"/>
<path d="M262.055 52.7383H239.761L220.389 0.000732158H234.933L262.055 52.7383" fill="#FF2525"/>
<path d="M239.76 52.7383H217.468L205.844 0.000732158H220.388L239.76 52.7383" fill="#FF9F9F"/>
<path d="M128.293 52.7358C128.293 58.8925 123.303 63.8828 117.147 63.8828C110.99 63.8828 106 58.8925 106 52.7358H128.293Z" fill="#FF2525"/>
<path d="M150.587 52.7358C150.587 58.8925 145.596 63.8828 139.44 63.8828C133.284 63.8828 128.294 58.8925 128.294 52.7358H150.587" fill="#FF7878"/>
<path d="M172.88 52.7358C172.88 58.8925 167.89 63.8828 161.733 63.8828C155.577 63.8828 150.586 58.8925 150.586 52.7358H172.88" fill="#FF2525"/>
<path d="M195.174 52.7358C195.174 58.8925 190.182 63.8828 184.027 63.8828C177.87 63.8828 172.88 58.8925 172.88 52.7358H195.174" fill="#FF7878"/>
<path d="M217.467 52.7358C217.467 58.8925 212.477 63.8828 206.32 63.8828C200.165 63.8828 195.174 58.8925 195.174 52.7358H217.467" fill="#FF2525"/>
<path d="M239.76 52.7358C239.76 58.8925 234.77 63.8828 228.613 63.8828C222.458 63.8828 217.468 58.8925 217.468 52.7358H239.76" fill="#FF7878"/>
<path d="M262.055 52.7358C262.055 58.8925 257.064 63.8828 250.908 63.8828C244.751 63.8828 239.761 58.8925 239.761 52.7358H262.055" fill="#FF2525"/>
</svg>
