<svg width="369" height="304" viewBox="0 0 369 304" fill="none" xmlns="http://www.w3.org/2000/svg">
<path d="M20.202 242.698C16.406 242.698 12.974 242.048 9.906 240.748C6.89 239.448 4.498 237.576 2.73 235.132C0.962 232.688 0.0519999 229.802 0 226.474H11.7C11.856 228.71 12.636 230.478 14.04 231.778C15.496 233.078 17.472 233.728 19.968 233.728C22.516 233.728 24.518 233.13 25.974 231.934C27.43 230.686 28.158 229.074 28.158 227.098C28.158 225.486 27.664 224.16 26.676 223.12C25.688 222.08 24.44 221.274 22.932 220.702C21.476 220.078 19.448 219.402 16.848 218.674C13.312 217.634 10.426 216.62 8.19 215.632C6.006 214.592 4.108 213.058 2.496 211.03C0.936 208.95 0.156 206.194 0.156 202.762C0.156 199.538 0.962 196.73 2.574 194.338C4.186 191.946 6.448 190.126 9.36 188.878C12.272 187.578 15.6 186.928 19.344 186.928C24.96 186.928 29.51 188.306 32.994 191.062C36.53 193.766 38.48 197.562 38.844 202.45H26.832C26.728 200.578 25.922 199.044 24.414 197.848C22.958 196.6 21.008 195.976 18.564 195.976C16.432 195.976 14.716 196.522 13.416 197.614C12.168 198.706 11.544 200.292 11.544 202.372C11.544 203.828 12.012 205.05 12.948 206.038C13.936 206.974 15.132 207.754 16.536 208.378C17.992 208.95 20.02 209.626 22.62 210.406C26.156 211.446 29.042 212.486 31.278 213.526C33.514 214.566 35.438 216.126 37.05 218.206C38.662 220.286 39.468 223.016 39.468 226.396C39.468 229.308 38.714 232.012 37.206 234.508C35.698 237.004 33.488 239.006 30.576 240.514C27.664 241.97 24.206 242.698 20.202 242.698Z" fill="#FF2525"/>
<path d="M73.2713 198.316C76.5473 198.316 79.4593 199.044 82.0073 200.5C84.5553 201.904 86.5313 204.01 87.9353 206.818C89.3913 209.574 90.1193 212.902 90.1193 216.802V242.152H79.1993V218.284C79.1993 214.852 78.3413 212.226 76.6253 210.406C74.9093 208.534 72.5693 207.598 69.6053 207.598C66.5893 207.598 64.1972 208.534 62.4292 210.406C60.7132 212.226 59.8553 214.852 59.8553 218.284V242.152H48.9352V184.432H59.8553V204.322C61.2593 202.45 63.1313 200.994 65.4713 199.954C67.8113 198.862 70.4113 198.316 73.2713 198.316Z" fill="#FF2525"/>
<path d="M119.692 242.854C115.532 242.854 111.788 241.944 108.46 240.124C105.132 238.252 102.506 235.626 100.582 232.246C98.7096 228.866 97.7736 224.966 97.7736 220.546C97.7736 216.126 98.7356 212.226 100.66 208.846C102.636 205.466 105.314 202.866 108.694 201.046C112.074 199.174 115.844 198.238 120.004 198.238C124.164 198.238 127.934 199.174 131.314 201.046C134.694 202.866 137.346 205.466 139.27 208.846C141.246 212.226 142.234 216.126 142.234 220.546C142.234 224.966 141.22 228.866 139.192 232.246C137.216 235.626 134.512 238.252 131.08 240.124C127.7 241.944 123.904 242.854 119.692 242.854ZM119.692 233.338C121.668 233.338 123.514 232.87 125.23 231.934C126.998 230.946 128.402 229.49 129.442 227.566C130.482 225.642 131.002 223.302 131.002 220.546C131.002 216.438 129.91 213.292 127.726 211.108C125.594 208.872 122.968 207.754 119.848 207.754C116.728 207.754 114.102 208.872 111.97 211.108C109.89 213.292 108.85 216.438 108.85 220.546C108.85 224.654 109.864 227.826 111.892 230.062C113.972 232.246 116.572 233.338 119.692 233.338Z" fill="#FF2525"/>
<path d="M161.164 205.18C162.568 203.204 164.492 201.566 166.936 200.266C169.432 198.914 172.266 198.238 175.438 198.238C179.13 198.238 182.458 199.148 185.422 200.968C188.438 202.788 190.804 205.388 192.52 208.768C194.288 212.096 195.172 215.97 195.172 220.39C195.172 224.81 194.288 228.736 192.52 232.168C190.804 235.548 188.438 238.174 185.422 240.046C182.458 241.918 179.13 242.854 175.438 242.854C172.266 242.854 169.458 242.204 167.014 240.904C164.622 239.604 162.672 237.966 161.164 235.99V262.744H150.244V198.94H161.164V205.18ZM184.018 220.39C184.018 217.79 183.472 215.554 182.38 213.682C181.34 211.758 179.936 210.302 178.168 209.314C176.452 208.326 174.58 207.832 172.552 207.832C170.576 207.832 168.704 208.352 166.936 209.392C165.22 210.38 163.816 211.836 162.724 213.76C161.684 215.684 161.164 217.946 161.164 220.546C161.164 223.146 161.684 225.408 162.724 227.332C163.816 229.256 165.22 230.738 166.936 231.778C168.704 232.766 170.576 233.26 172.552 233.26C174.58 233.26 176.452 232.74 178.168 231.7C179.936 230.66 181.34 229.178 182.38 227.254C183.472 225.33 184.018 223.042 184.018 220.39Z" fill="#FF2525"/>
<path d="M233.839 242.152L214.027 217.894V242.152H203.107V187.708H214.027V212.122L233.839 187.708H247.021L224.557 214.696L247.645 242.152H233.839Z" fill="#FF2525"/>
<path d="M279.164 198.316C282.44 198.316 285.352 199.044 287.9 200.5C290.448 201.904 292.424 204.01 293.828 206.818C295.284 209.574 296.012 212.902 296.012 216.802V242.152H285.092V218.284C285.092 214.852 284.234 212.226 282.518 210.406C280.802 208.534 278.462 207.598 275.498 207.598C272.482 207.598 270.09 208.534 268.322 210.406C266.606 212.226 265.748 214.852 265.748 218.284V242.152H254.828V184.432H265.748V204.322C267.152 202.45 269.024 200.994 271.364 199.954C273.704 198.862 276.304 198.316 279.164 198.316Z" fill="#FF2525"/>
<path d="M325.584 242.854C321.424 242.854 317.68 241.944 314.352 240.124C311.024 238.252 308.398 235.626 306.474 232.246C304.602 228.866 303.666 224.966 303.666 220.546C303.666 216.126 304.628 212.226 306.552 208.846C308.528 205.466 311.206 202.866 314.586 201.046C317.966 199.174 321.736 198.238 325.896 198.238C330.056 198.238 333.826 199.174 337.206 201.046C340.586 202.866 343.238 205.466 345.162 208.846C347.138 212.226 348.126 216.126 348.126 220.546C348.126 224.966 347.112 228.866 345.084 232.246C343.108 235.626 340.404 238.252 336.972 240.124C333.592 241.944 329.796 242.854 325.584 242.854ZM325.584 233.338C327.56 233.338 329.406 232.87 331.122 231.934C332.89 230.946 334.294 229.49 335.334 227.566C336.374 225.642 336.894 223.302 336.894 220.546C336.894 216.438 335.802 213.292 333.618 211.108C331.486 208.872 328.86 207.754 325.74 207.754C322.62 207.754 319.994 208.872 317.862 211.108C315.782 213.292 314.742 216.438 314.742 220.546C314.742 224.654 315.756 227.826 317.784 230.062C319.864 232.246 322.464 233.338 325.584 233.338Z" fill="#FF2525"/>
<path d="M361.674 193.792C359.698 193.792 358.06 193.194 356.76 191.998C355.512 190.75 354.888 189.216 354.888 187.396C354.888 185.576 355.512 184.068 356.76 182.872C358.06 181.624 359.698 181 361.674 181C363.598 181 365.184 181.624 366.432 182.872C367.68 184.068 368.304 185.576 368.304 187.396C368.304 189.216 367.68 190.75 366.432 191.998C365.184 193.194 363.598 193.792 361.674 193.792ZM367.056 249.25C367.056 254.034 365.86 257.466 363.468 259.546C361.128 261.678 357.748 262.744 353.328 262.744H348.492V253.462H351.612C353.276 253.462 354.446 253.124 355.122 252.448C355.798 251.824 356.136 250.784 356.136 249.328V198.94H367.056V249.25Z" fill="#FF2525"/>
<path d="M83.32 280.425L78.472 297.153H76.024L72.136 283.689L68.104 297.153L65.68 297.177L61 280.425H63.328L66.976 294.609L71.008 280.425H73.456L77.296 294.561L80.968 280.425H83.32Z" fill="black"/>
<path d="M97.7101 290.073C97.7101 290.489 97.6861 290.929 97.6381 291.393H87.1261C87.2061 292.689 87.6461 293.705 88.4461 294.441C89.2621 295.161 90.2461 295.521 91.3981 295.521C92.3421 295.521 93.1261 295.305 93.7501 294.873C94.3901 294.425 94.8381 293.833 95.0941 293.097H97.4461C97.0941 294.361 96.3901 295.393 95.3341 296.193C94.2781 296.977 92.9661 297.369 91.3981 297.369C90.1501 297.369 89.0301 297.089 88.0381 296.529C87.0621 295.969 86.2941 295.177 85.7341 294.153C85.1741 293.113 84.8941 291.913 84.8941 290.553C84.8941 289.193 85.1661 288.001 85.7101 286.977C86.2541 285.953 87.0141 285.169 87.9901 284.625C88.9821 284.065 90.1181 283.785 91.3981 283.785C92.6461 283.785 93.7501 284.057 94.7101 284.601C95.6701 285.145 96.4061 285.897 96.9181 286.857C97.4461 287.801 97.7101 288.873 97.7101 290.073ZM95.4541 289.617C95.4541 288.785 95.2701 288.073 94.9021 287.481C94.5341 286.873 94.0301 286.417 93.3901 286.113C92.7661 285.793 92.0701 285.633 91.3021 285.633C90.1981 285.633 89.2541 285.985 88.4701 286.689C87.7021 287.393 87.2621 288.369 87.1501 289.617H95.4541Z" fill="black"/>
<path d="M112.295 297.321C111.191 297.321 110.199 297.129 109.319 296.745C108.455 296.345 107.775 295.801 107.279 295.113C106.783 294.409 106.527 293.601 106.511 292.689H108.839C108.919 293.473 109.239 294.137 109.799 294.681C110.375 295.209 111.207 295.473 112.295 295.473C113.335 295.473 114.151 295.217 114.743 294.705C115.351 294.177 115.655 293.505 115.655 292.689C115.655 292.049 115.479 291.529 115.127 291.129C114.775 290.729 114.335 290.425 113.807 290.217C113.279 290.009 112.567 289.785 111.671 289.545C110.567 289.257 109.679 288.969 109.007 288.681C108.351 288.393 107.783 287.945 107.303 287.337C106.839 286.713 106.607 285.881 106.607 284.841C106.607 283.929 106.839 283.121 107.303 282.417C107.767 281.713 108.415 281.169 109.247 280.785C110.095 280.401 111.063 280.209 112.151 280.209C113.719 280.209 114.999 280.601 115.991 281.385C116.999 282.169 117.567 283.209 117.695 284.505H115.295C115.215 283.865 114.879 283.305 114.287 282.825C113.695 282.329 112.911 282.081 111.935 282.081C111.023 282.081 110.279 282.321 109.703 282.801C109.127 283.265 108.839 283.921 108.839 284.769C108.839 285.377 109.007 285.873 109.343 286.257C109.695 286.641 110.119 286.937 110.615 287.145C111.127 287.337 111.839 287.561 112.751 287.817C113.855 288.121 114.743 288.425 115.415 288.729C116.087 289.017 116.663 289.473 117.143 290.097C117.623 290.705 117.863 291.537 117.863 292.593C117.863 293.409 117.647 294.177 117.215 294.897C116.783 295.617 116.143 296.201 115.295 296.649C114.447 297.097 113.447 297.321 112.295 297.321Z" fill="black"/>
<path d="M133.077 290.073C133.077 290.489 133.053 290.929 133.005 291.393H122.493C122.573 292.689 123.013 293.705 123.813 294.441C124.629 295.161 125.613 295.521 126.765 295.521C127.709 295.521 128.493 295.305 129.117 294.873C129.757 294.425 130.205 293.833 130.461 293.097H132.813C132.461 294.361 131.757 295.393 130.701 296.193C129.645 296.977 128.333 297.369 126.765 297.369C125.517 297.369 124.397 297.089 123.405 296.529C122.429 295.969 121.661 295.177 121.101 294.153C120.541 293.113 120.261 291.913 120.261 290.553C120.261 289.193 120.533 288.001 121.077 286.977C121.621 285.953 122.381 285.169 123.357 284.625C124.349 284.065 125.485 283.785 126.765 283.785C128.013 283.785 129.117 284.057 130.077 284.601C131.037 285.145 131.773 285.897 132.285 286.857C132.813 287.801 133.077 288.873 133.077 290.073ZM130.821 289.617C130.821 288.785 130.637 288.073 130.269 287.481C129.901 286.873 129.397 286.417 128.757 286.113C128.133 285.793 127.437 285.633 126.669 285.633C125.565 285.633 124.621 285.985 123.837 286.689C123.069 287.393 122.629 288.369 122.517 289.617H130.821Z" fill="black"/>
<path d="M135.144 290.529C135.144 289.185 135.416 288.009 135.96 287.001C136.504 285.977 137.248 285.185 138.192 284.625C139.152 284.065 140.216 283.785 141.384 283.785C142.536 283.785 143.536 284.033 144.384 284.529C145.232 285.025 145.864 285.649 146.28 286.401V284.001H148.488V297.153H146.28V294.705C145.848 295.473 145.2 296.113 144.336 296.625C143.488 297.121 142.496 297.369 141.36 297.369C140.192 297.369 139.136 297.081 138.192 296.505C137.248 295.929 136.504 295.121 135.96 294.081C135.416 293.041 135.144 291.857 135.144 290.529ZM146.28 290.553C146.28 289.561 146.08 288.697 145.68 287.961C145.28 287.225 144.736 286.665 144.048 286.281C143.376 285.881 142.632 285.681 141.816 285.681C141 285.681 140.256 285.873 139.584 286.257C138.912 286.641 138.376 287.201 137.976 287.937C137.576 288.673 137.376 289.537 137.376 290.529C137.376 291.537 137.576 292.417 137.976 293.169C138.376 293.905 138.912 294.473 139.584 294.873C140.256 295.257 141 295.449 141.816 295.449C142.632 295.449 143.376 295.257 144.048 294.873C144.736 294.473 145.28 293.905 145.68 293.169C146.08 292.417 146.28 291.545 146.28 290.553Z" fill="black"/>
<path d="M154.363 286.137C154.747 285.385 155.291 284.801 155.995 284.385C156.715 283.969 157.587 283.761 158.611 283.761V286.017H158.035C155.587 286.017 154.363 287.345 154.363 290.001V297.153H152.179V284.001H154.363V286.137Z" fill="black"/>
<path d="M160.316 290.553C160.316 289.193 160.588 288.009 161.132 287.001C161.676 285.977 162.428 285.185 163.388 284.625C164.364 284.065 165.476 283.785 166.724 283.785C168.34 283.785 169.668 284.177 170.708 284.961C171.764 285.745 172.46 286.833 172.796 288.225H170.444C170.22 287.425 169.78 286.793 169.124 286.329C168.484 285.865 167.684 285.633 166.724 285.633C165.476 285.633 164.468 286.065 163.7 286.929C162.932 287.777 162.548 288.985 162.548 290.553C162.548 292.137 162.932 293.361 163.7 294.225C164.468 295.089 165.476 295.521 166.724 295.521C167.684 295.521 168.484 295.297 169.124 294.849C169.764 294.401 170.204 293.761 170.444 292.929H172.796C172.444 294.273 171.74 295.353 170.684 296.169C169.628 296.969 168.308 297.369 166.724 297.369C165.476 297.369 164.364 297.089 163.388 296.529C162.428 295.969 161.676 295.177 161.132 294.153C160.588 293.129 160.316 291.929 160.316 290.553Z" fill="black"/>
<path d="M182.238 283.761C183.23 283.761 184.126 283.977 184.926 284.409C185.726 284.825 186.35 285.457 186.798 286.305C187.262 287.153 187.494 288.185 187.494 289.401V297.153H185.334V289.713C185.334 288.401 185.006 287.401 184.35 286.713C183.694 286.009 182.798 285.657 181.662 285.657C180.51 285.657 179.59 286.017 178.902 286.737C178.23 287.457 177.894 288.505 177.894 289.881V297.153H175.71V279.393H177.894V285.873C178.326 285.201 178.918 284.681 179.67 284.313C180.438 283.945 181.294 283.761 182.238 283.761Z" fill="black"/>
<path d="M209.172 280.425L203.724 290.841V297.153H201.54V290.841L196.068 280.425H198.492L202.62 288.897L206.748 280.425H209.172Z" fill="black"/>
<path d="M217.212 297.369C215.98 297.369 214.86 297.089 213.852 296.529C212.86 295.969 212.076 295.177 211.5 294.153C210.94 293.113 210.66 291.913 210.66 290.553C210.66 289.209 210.948 288.025 211.524 287.001C212.116 285.961 212.916 285.169 213.924 284.625C214.932 284.065 216.06 283.785 217.308 283.785C218.556 283.785 219.684 284.065 220.692 284.625C221.7 285.169 222.492 285.953 223.068 286.977C223.66 288.001 223.956 289.193 223.956 290.553C223.956 291.913 223.652 293.113 223.044 294.153C222.452 295.177 221.644 295.969 220.62 296.529C219.596 297.089 218.46 297.369 217.212 297.369ZM217.212 295.449C217.996 295.449 218.732 295.265 219.42 294.897C220.108 294.529 220.66 293.977 221.076 293.241C221.508 292.505 221.724 291.609 221.724 290.553C221.724 289.497 221.516 288.601 221.1 287.865C220.684 287.129 220.14 286.585 219.468 286.233C218.796 285.865 218.068 285.681 217.284 285.681C216.484 285.681 215.748 285.865 215.076 286.233C214.42 286.585 213.892 287.129 213.492 287.865C213.092 288.601 212.892 289.497 212.892 290.553C212.892 291.625 213.084 292.529 213.468 293.265C213.868 294.001 214.396 294.553 215.052 294.921C215.708 295.273 216.428 295.449 217.212 295.449Z" fill="black"/>
<path d="M238.491 284.001V297.153H236.307V295.209C235.891 295.881 235.307 296.409 234.555 296.793C233.819 297.161 233.003 297.345 232.107 297.345C231.083 297.345 230.163 297.137 229.347 296.721C228.531 296.289 227.883 295.649 227.403 294.801C226.939 293.953 226.707 292.921 226.707 291.705V284.001H228.867V291.417C228.867 292.713 229.195 293.713 229.851 294.417C230.507 295.105 231.403 295.449 232.539 295.449C233.707 295.449 234.627 295.089 235.299 294.369C235.971 293.649 236.307 292.601 236.307 291.225V284.001H238.491Z" fill="black"/>
<path d="M253.881 297.321C252.777 297.321 251.785 297.129 250.905 296.745C250.041 296.345 249.361 295.801 248.865 295.113C248.369 294.409 248.113 293.601 248.097 292.689H250.425C250.505 293.473 250.825 294.137 251.385 294.681C251.961 295.209 252.793 295.473 253.881 295.473C254.921 295.473 255.737 295.217 256.329 294.705C256.937 294.177 257.241 293.505 257.241 292.689C257.241 292.049 257.065 291.529 256.713 291.129C256.361 290.729 255.921 290.425 255.393 290.217C254.865 290.009 254.153 289.785 253.257 289.545C252.153 289.257 251.265 288.969 250.593 288.681C249.937 288.393 249.369 287.945 248.889 287.337C248.425 286.713 248.193 285.881 248.193 284.841C248.193 283.929 248.425 283.121 248.889 282.417C249.353 281.713 250.001 281.169 250.833 280.785C251.681 280.401 252.649 280.209 253.737 280.209C255.305 280.209 256.585 280.601 257.577 281.385C258.585 282.169 259.153 283.209 259.281 284.505H256.881C256.801 283.865 256.465 283.305 255.873 282.825C255.281 282.329 254.497 282.081 253.521 282.081C252.609 282.081 251.865 282.321 251.289 282.801C250.713 283.265 250.425 283.921 250.425 284.769C250.425 285.377 250.593 285.873 250.929 286.257C251.281 286.641 251.705 286.937 252.201 287.145C252.713 287.337 253.425 287.561 254.337 287.817C255.441 288.121 256.329 288.425 257.001 288.729C257.673 289.017 258.249 289.473 258.729 290.097C259.209 290.705 259.449 291.537 259.449 292.593C259.449 293.409 259.233 294.177 258.801 294.897C258.369 295.617 257.729 296.201 256.881 296.649C256.033 297.097 255.033 297.321 253.881 297.321Z" fill="black"/>
<path d="M269.191 283.761C270.183 283.761 271.079 283.977 271.879 284.409C272.679 284.825 273.303 285.457 273.751 286.305C274.215 287.153 274.447 288.185 274.447 289.401V297.153H272.287V289.713C272.287 288.401 271.959 287.401 271.303 286.713C270.647 286.009 269.751 285.657 268.615 285.657C267.463 285.657 266.543 286.017 265.855 286.737C265.183 287.457 264.847 288.505 264.847 289.881V297.153H262.663V279.393H264.847V285.873C265.279 285.201 265.871 284.681 266.623 284.313C267.391 283.945 268.247 283.761 269.191 283.761Z" fill="black"/>
<path d="M283.751 297.369C282.519 297.369 281.399 297.089 280.391 296.529C279.399 295.969 278.615 295.177 278.039 294.153C277.479 293.113 277.199 291.913 277.199 290.553C277.199 289.209 277.487 288.025 278.063 287.001C278.655 285.961 279.455 285.169 280.463 284.625C281.471 284.065 282.599 283.785 283.847 283.785C285.095 283.785 286.223 284.065 287.231 284.625C288.239 285.169 289.031 285.953 289.607 286.977C290.199 288.001 290.495 289.193 290.495 290.553C290.495 291.913 290.191 293.113 289.583 294.153C288.991 295.177 288.183 295.969 287.159 296.529C286.135 297.089 284.999 297.369 283.751 297.369ZM283.751 295.449C284.535 295.449 285.271 295.265 285.959 294.897C286.647 294.529 287.199 293.977 287.615 293.241C288.047 292.505 288.263 291.609 288.263 290.553C288.263 289.497 288.055 288.601 287.639 287.865C287.223 287.129 286.679 286.585 286.007 286.233C285.335 285.865 284.607 285.681 283.823 285.681C283.023 285.681 282.287 285.865 281.615 286.233C280.959 286.585 280.431 287.129 280.031 287.865C279.631 288.601 279.431 289.497 279.431 290.553C279.431 291.625 279.623 292.529 280.007 293.265C280.407 294.001 280.935 294.553 281.591 294.921C282.247 295.273 282.967 295.449 283.751 295.449Z" fill="black"/>
<path d="M295.55 286.425C295.982 285.673 296.622 285.049 297.47 284.553C298.334 284.041 299.334 283.785 300.47 283.785C301.638 283.785 302.694 284.065 303.638 284.625C304.598 285.185 305.35 285.977 305.894 287.001C306.438 288.009 306.71 289.185 306.71 290.529C306.71 291.857 306.438 293.041 305.894 294.081C305.35 295.121 304.598 295.929 303.638 296.505C302.694 297.081 301.638 297.369 300.47 297.369C299.35 297.369 298.358 297.121 297.494 296.625C296.646 296.113 295.998 295.481 295.55 294.729V303.393H293.366V284.001H295.55V286.425ZM304.478 290.529C304.478 289.537 304.278 288.673 303.878 287.937C303.478 287.201 302.934 286.641 302.246 286.257C301.574 285.873 300.83 285.681 300.014 285.681C299.214 285.681 298.47 285.881 297.782 286.281C297.11 286.665 296.566 287.233 296.15 287.985C295.75 288.721 295.55 289.577 295.55 290.553C295.55 291.545 295.75 292.417 296.15 293.169C296.566 293.905 297.11 294.473 297.782 294.873C298.47 295.257 299.214 295.449 300.014 295.449C300.83 295.449 301.574 295.257 302.246 294.873C302.934 294.473 303.478 293.905 303.878 293.169C304.278 292.417 304.478 291.537 304.478 290.529Z" fill="black"/>
<path d="M246.767 53.0623V128.705C246.767 138.258 239.036 146.002 229.484 146.002H138.998L171.219 115.328L178.47 129.349L195.177 81.269L145.947 95.1805L159.967 103.527L123.907 137.861C122.236 135.215 121.276 132.077 121.276 128.705V53.0623C121.276 52.9527 121.276 52.843 121.29 52.7334C121.426 44.8114 126.923 38.1777 134.324 36.3137C135.681 35.9574 137.105 35.7792 138.573 35.7792H229.484C230.951 35.7792 232.361 35.9574 233.719 36.3137C241.119 38.164 246.617 44.7963 246.752 52.7334C246.767 52.843 246.767 52.9527 246.767 53.0623" fill="#F30C0C"/>
<path d="M128.293 52.7402H106L133.122 0.00268528H147.665L128.293 52.7402Z" fill="#FF2525"/>
<path d="M150.587 52.7402H128.294L147.666 0.00268528H162.211L150.587 52.7402Z" fill="#FF9F9F"/>
<path d="M172.88 52.7402H150.586L162.21 0.00268528H176.755L172.88 52.7402" fill="#FF2525"/>
<path d="M195.174 52.7402H172.88L176.755 0.00268528H191.298L195.174 52.7402" fill="#FF9F9F"/>
<path d="M217.467 52.7402H195.175L191.299 0.00268528H205.844L217.467 52.7402" fill="#FF2525"/>
<path d="M262.055 52.7402H239.761L220.389 0.00268528H234.933L262.055 52.7402" fill="#FF2525"/>
<path d="M239.76 52.7402H217.468L205.844 0.00268528H220.388L239.76 52.7402" fill="#FF9F9F"/>
<path d="M128.293 52.7378C128.293 58.8945 123.303 63.8848 117.147 63.8848C110.99 63.8848 106 58.8945 106 52.7378H128.293Z" fill="#FF2525"/>
<path d="M150.587 52.7378C150.587 58.8945 145.596 63.8848 139.44 63.8848C133.284 63.8848 128.294 58.8945 128.294 52.7378H150.587" fill="#FF7878"/>
<path d="M172.88 52.7378C172.88 58.8945 167.89 63.8848 161.733 63.8848C155.577 63.8848 150.586 58.8945 150.586 52.7378H172.88" fill="#FF2525"/>
<path d="M195.174 52.7378C195.174 58.8945 190.182 63.8848 184.027 63.8848C177.87 63.8848 172.88 58.8945 172.88 52.7378H195.174" fill="#FF7878"/>
<path d="M217.467 52.7378C217.467 58.8945 212.477 63.8848 206.32 63.8848C200.165 63.8848 195.174 58.8945 195.174 52.7378H217.467" fill="#FF2525"/>
<path d="M239.76 52.7378C239.76 58.8945 234.77 63.8848 228.613 63.8848C222.458 63.8848 217.468 58.8945 217.468 52.7378H239.76" fill="#FF7878"/>
<path d="M262.055 52.7378C262.055 58.8945 257.064 63.8848 250.908 63.8848C244.751 63.8848 239.761 58.8945 239.761 52.7378H262.055" fill="#FF2525"/>
</svg>
