<svg width="11" height="11" viewBox="0 0 11 11" fill="none" xmlns="http://www.w3.org/2000/svg">
<path d="M10.0404 1.27241H8.72044V0.412442C8.72044 0.265139 8.64996 0.128984 8.53557 0.0552385C8.42118 -0.0184128 8.28021 -0.0184128 8.16583 0.0552385C8.05143 0.128982 7.98095 0.265144 7.98095 0.412442V1.27241H3.01896V0.412442C3.01896 0.265139 2.94848 0.128984 2.83409 0.0552385C2.7197 -0.0184128 2.57873 -0.0184128 2.46434 0.0552385C2.34995 0.128982 2.27947 0.265144 2.27947 0.412442V1.27241H0.959522C0.705158 1.27296 0.461443 1.38592 0.281598 1.58653C0.101754 1.78713 0.000485952 2.059 0 2.34274V9.92966C0.000495206 10.2134 0.101762 10.4853 0.281598 10.6859C0.461436 10.8865 0.705158 10.9995 0.959522 11H10.0405C10.2948 10.9994 10.5386 10.8865 10.7184 10.6859C10.8982 10.4853 10.9995 10.2134 11 9.92966V2.34274C10.9995 2.059 10.8982 1.78714 10.7184 1.58653C10.5386 1.38591 10.2948 1.27295 10.0405 1.27241H10.0404ZM10.2604 4.36577H0.739576V2.34274C0.739576 2.27766 0.762769 2.21523 0.804034 2.1692C0.8453 2.12317 0.901258 2.0973 0.959608 2.0973H2.27964V2.95727H2.27956C2.27956 3.10457 2.35004 3.24072 2.46443 3.31447C2.57882 3.38812 2.71979 3.38812 2.83418 3.31447C2.94857 3.24073 3.01905 3.10456 3.01905 2.95727V2.0973H7.98104V2.95727C7.98104 3.10457 8.05152 3.24072 8.16591 3.31447C8.2803 3.38812 8.42127 3.38812 8.53566 3.31447C8.65005 3.24073 8.72053 3.10456 8.72053 2.95727V2.0973H10.0406H10.0405C10.1621 2.0973 10.2605 2.20713 10.2605 2.34274L10.2604 4.36577Z" fill="#6B6B6B"/>
</svg>
