<svg width="76" height="76" viewBox="0 0 76 76" fill="none" xmlns="http://www.w3.org/2000/svg">
<circle cx="38" cy="38" r="38" fill="#2B2B2B"/>
<path fill-rule="evenodd" clip-rule="evenodd" d="M40.1761 37.5L50.6527 27.0235C51.1158 26.5606 51.1158 25.8102 50.6527 25.3473C50.1898 24.8842 49.4394 24.8842 48.9765 25.3473L38.5 35.8239L28.0235 25.3473C27.5606 24.8842 26.8102 24.8842 26.3473 25.3473C25.8842 25.8102 25.8842 26.5606 26.3473 27.0235L36.8239 37.5L26.3473 47.9765C25.8842 48.4394 25.8842 49.1898 26.3473 49.6527C26.8102 50.1158 27.5606 50.1158 28.0235 49.6527L38.5 39.1761L48.9765 49.6527C49.4394 50.1158 50.1898 50.1158 50.6527 49.6527C51.1158 49.1898 51.1158 48.4394 50.6527 47.9765L40.1761 37.5Z" fill="white"/>
</svg>
