<svg width="22" height="22" viewBox="0 0 22 22" fill="none" xmlns="http://www.w3.org/2000/svg">
<path d="M19.4216 0H2.57812C1.15433 0 0 1.15434 0 2.57813V16.3281C0 17.7519 1.15433 18.9062 2.57812 18.9062H7.61823C7.9056 18.9062 8.17393 19.0498 8.33335 19.2889L9.66409 21.2849C9.9618 21.7317 10.463 22 11 22C11.537 22 12.0382 21.7317 12.3361 21.2849L13.6668 19.2889C13.8263 19.0498 14.0946 18.9062 14.3819 18.9062H19.422C20.8457 18.9062 22 17.7519 22 16.3281V2.57813C22 1.15434 20.8457 0 19.4219 0H19.4216ZM4.64039 11.172C3.69122 11.172 2.92168 10.4025 2.92168 9.45328C2.92168 8.5041 3.69122 7.73456 4.64039 7.73456C5.58957 7.73456 6.35911 8.5041 6.35911 9.45328C6.35911 10.4025 5.58957 11.172 4.64039 11.172ZM10.9997 11.172C10.0505 11.172 9.28095 10.4025 9.28095 9.45328C9.28095 8.5041 10.0505 7.73456 10.9997 7.73456C11.9488 7.73456 12.7184 8.5041 12.7184 9.45328C12.7184 10.4025 11.9488 11.172 10.9997 11.172ZM17.3589 11.172C16.4098 11.172 15.6402 10.4025 15.6402 9.45328C15.6402 8.5041 16.4098 7.73456 17.3589 7.73456C18.3081 7.73456 19.0777 8.5041 19.0777 9.45328C19.0777 10.4025 18.3081 11.172 17.3589 11.172Z" fill="#535353"/>
</svg>
