<svg width="14" height="22" viewBox="0 0 14 22" fill="none" xmlns="http://www.w3.org/2000/svg">
<path d="M13.3333 1.43351C13.3333 0.661586 12.6732 0 11.9029 0H1.44922C0.678964 0 0.0188061 0.661547 0.0188061 1.43351C0.0188061 2.20548 0.678925 2.86703 1.44922 2.86703C3.31978 2.86703 5.02529 3.69395 5.85088 4.85203H1.44922C0.678964 4.85203 0.0188061 5.51358 0.0188061 6.28554C0.0188061 7.05747 0.678925 7.71906 1.44922 7.71906H6.1809C5.46553 9.09753 3.59498 10.1453 1.44922 10.1453C0.898865 10.1453 0.403747 10.476 0.128649 10.9722C-0.0912616 11.4684 -0.0363781 12.0749 0.348562 12.5161L8.10641 21.5038C8.38159 21.8346 8.76653 22 9.2067 22C9.53676 22 9.86682 21.8896 10.142 21.6692C10.7472 21.1731 10.8021 20.2357 10.307 19.6292L4.25467 12.5714C6.78577 11.7995 8.71115 9.92482 9.20623 7.66403H11.9023C12.6725 7.66403 13.3327 7.00248 13.3327 6.23051C13.3327 5.45855 12.6726 4.797 11.9023 4.797H9.04117C8.82126 4.08007 8.43594 3.41852 7.99571 2.812H11.9023C12.6725 2.86738 13.333 2.20545 13.333 1.43352L13.3333 1.43351Z" fill="#828282"/>
</svg>
