<svg width="18" height="22" viewBox="0 0 18 22" fill="none" xmlns="http://www.w3.org/2000/svg">
<path d="M7.85708 21.5985C8.31333 22.1338 9.16514 22.1338 9.62158 21.5985C11.447 19.3974 15.5235 14.4005 16.6187 12.4671C17.9574 10.0579 17.8965 7.26188 16.6187 4.73364C14.4283 0.480338 9.13482 -1.21518 4.81485 0.926393C0.464558 3.06797 -1.20878 8.39216 0.920785 12.4671C1.86382 14.4006 6.00132 19.3975 7.85708 21.5985ZM8.73944 5.26903C10.6256 5.26903 12.1467 6.75623 12.1467 8.60032C12.1467 10.4444 10.6256 11.9316 8.73944 11.9316C6.85331 11.9316 5.33219 10.4444 5.33219 8.60032C5.33198 6.75623 6.88368 5.26903 8.73944 5.26903Z" fill="#828282"/>
</svg>
