<svg width="21" height="21" viewBox="0 0 21 21" fill="none" xmlns="http://www.w3.org/2000/svg">
<path d="M20.888 16.5552C19.9128 14.5194 18.2499 13.1913 15.8739 12.5986C15.517 12.5095 15.1378 12.5979 14.853 12.8308L12.8798 14.443C12.4946 14.7579 11.95 14.7983 11.5266 14.5372C9.43939 13.2497 7.75046 11.5608 6.46287 9.47347C6.20168 9.05005 6.24216 8.50548 6.55702 8.12022L8.16928 6.14704C8.40209 5.86212 8.49049 5.48304 8.40147 5.12616C7.80866 2.75033 6.48053 1.08729 4.44485 0.112113C4.11634 -0.045158 3.72907 -0.0364744 3.40785 0.135067C2.38419 0.681816 1.40488 1.30035 0.47707 1.99596C0.121733 2.26227 -0.0574126 2.70276 0.0164008 3.1406C0.683342 7.09085 2.81785 11.2449 6.28637 14.7136C9.75488 18.1821 13.9091 20.3165 17.8595 20.9836C18.2973 21.0574 18.7376 20.8783 19.0041 20.5229C19.6998 19.5951 20.3183 18.6158 20.865 17.5922C21.0364 17.2708 21.0452 16.8833 20.8878 16.555L20.888 16.5552Z" fill="#828282"/>
</svg>
