<svg width="22" height="22" viewBox="0 0 22 22" fill="none" xmlns="http://www.w3.org/2000/svg">
<path d="M11 1.63279C12.2654 1.63279 13.4917 1.88032 14.6454 2.3685C15.7605 2.84024 16.7626 3.51576 17.6236 4.37635C18.4842 5.23694 19.1602 6.23904 19.6315 7.35456C20.1197 8.50826 20.3672 9.73504 20.3672 11C20.3672 12.265 20.1197 13.4917 19.6315 14.6454C19.1598 15.7605 18.4842 16.7626 17.6236 17.6236C16.7631 18.4842 15.761 19.1602 14.6454 19.6315C13.4917 20.1197 12.265 20.3672 11 20.3672C9.73504 20.3672 8.50826 20.1197 7.35456 19.6315C6.23951 19.1598 5.23741 18.4842 4.37635 17.6236C3.51576 16.7631 2.83977 15.761 2.3685 14.6454C1.88033 13.4917 1.63279 12.265 1.63279 11C1.63279 9.73504 1.88032 8.50826 2.3685 7.35456C2.84024 6.23951 3.51576 5.23741 4.37635 4.37635C5.23694 3.51576 6.23904 2.83977 7.35456 2.3685C8.50826 1.88033 9.73504 1.63279 11 1.63279ZM11 0C4.92525 0 0 4.92525 0 11C0 17.0748 4.92525 22 11 22C17.0748 22 22 17.0751 22 11C22 4.92486 17.0748 0 11 0Z" fill="#828282"/>
<path d="M15.6369 11.822H11C10.5493 11.822 10.1836 11.4563 10.1836 11.0056V4.59374C10.1836 4.14302 10.5493 3.77734 11 3.77734C11.4507 3.77734 11.8164 4.14304 11.8164 4.59374V10.1892H15.6368C16.0875 10.1892 16.4532 10.5549 16.4532 11.0056C16.4532 11.4563 16.0875 11.822 15.6368 11.822L15.6369 11.822Z" fill="#828282"/>
</svg>
