<svg width="26" height="20" viewBox="0 0 26 20" fill="none" xmlns="http://www.w3.org/2000/svg">
<path d="M1.55211 0C0.694844 0 0 0.699498 0 1.5625C0 2.4255 0.694844 3.125 1.55211 3.125H23.9024C24.7597 3.125 25.4545 2.4255 25.4545 1.5625C25.4545 0.699498 24.7597 0 23.9024 0H1.55211ZM1.55211 8.4375C0.694844 8.4375 0 9.137 0 10C0 10.863 0.694844 11.5625 1.55211 11.5625H23.9024C24.7597 11.5625 25.4545 10.863 25.4545 10C25.4545 9.137 24.7597 8.4375 23.9024 8.4375H1.55211ZM1.55211 16.875C0.694844 16.875 0 17.5745 0 18.4375C0 19.3005 0.694844 20 1.55211 20H23.9024C24.7597 20 25.4545 19.3005 25.4545 18.4375C25.4545 17.5745 24.7597 16.875 23.9024 16.875H1.55211Z" fill="white"/>
</svg>
