<svg width="29" height="29" viewBox="0 0 29 29" fill="none" xmlns="http://www.w3.org/2000/svg">
<path opacity="0.4" d="M14.0488 9.36636C11.4684 9.36636 9.36267 11.4721 9.36267 14.0525C9.36267 16.6329 11.4684 18.7387 14.0488 18.7387C16.6291 18.7387 18.7348 16.6329 18.7348 14.0525C18.7348 11.4721 16.6291 9.36636 14.0488 9.36636ZM28.1035 14.0525C28.1035 12.112 28.1211 10.189 28.0121 8.25194C27.9031 6.00202 27.3899 4.00521 25.7446 2.35995C24.0959 0.711178 22.1026 0.20143 19.8527 0.0924488C17.9122 -0.0165319 15.9893 0.00104567 14.0523 0.00104567C12.1117 0.00104567 10.1888 -0.0165319 8.25179 0.0924488C6.00191 0.20143 4.00513 0.714694 2.35991 2.35995C0.711165 4.00872 0.201426 6.00202 0.0924471 8.25194C-0.0165316 10.1925 0.00104565 12.1155 0.00104565 14.0525C0.00104565 15.9896 -0.0165316 17.9161 0.0924471 19.8531C0.201426 22.103 0.71468 24.0998 2.35991 25.7451C4.00865 27.3939 6.00191 27.9036 8.25179 28.0126C10.1923 28.1216 12.1153 28.104 14.0523 28.104C15.9928 28.104 17.9157 28.1216 19.8527 28.0126C22.1026 27.9036 24.0994 27.3904 25.7446 25.7451C27.3934 24.0963 27.9031 22.103 28.0121 19.8531C28.1246 17.9161 28.1035 15.9931 28.1035 14.0525ZM14.0488 21.2628C10.0587 21.2628 6.83858 18.0426 6.83858 14.0525C6.83858 10.0624 10.0587 6.84222 14.0488 6.84222C18.0388 6.84222 21.2589 10.0624 21.2589 14.0525C21.2589 18.0426 18.0388 21.2628 14.0488 21.2628ZM21.5542 8.23085C20.6226 8.23085 19.8703 7.47853 19.8703 6.54692C19.8703 5.61531 20.6226 4.86299 21.5542 4.86299C22.4858 4.86299 23.2381 5.61531 23.2381 6.54692C23.2384 6.76814 23.195 6.98723 23.1105 7.19166C23.026 7.39609 22.902 7.58183 22.7455 7.73826C22.5891 7.89468 22.4034 8.01871 22.1989 8.10323C21.9945 8.18776 21.7754 8.23113 21.5542 8.23085Z" fill="black"/>
</svg>
