<svg width="20" height="20" viewBox="0 0 20 20" fill="none" xmlns="http://www.w3.org/2000/svg">
<path d="M0.505832 13.0154C1.73791 16.9678 5.18134 19.7956 9.22512 19.7956C10.8679 19.7956 12.3843 19.3186 13.7426 18.5009L13.4583 17.7513C12.637 18.2623 11.7525 18.6371 10.7729 18.8417C11.152 18.3307 11.4995 17.6151 11.784 16.7633C11.9735 16.1502 12.163 15.4346 12.2895 14.685L11.7525 13.254C11.3102 16.7633 10.2361 18.9779 9.25684 19.0121C8.2458 19.0121 7.1402 16.6611 6.72945 13.0496H11.6895L11.3734 12.2318H6.6347C6.57146 11.5162 6.53994 10.7326 6.53994 9.91511C6.53994 9.09734 6.57146 8.31376 6.6347 7.59838H11.879C11.9422 8.314 11.9737 9.09758 11.9737 9.91511C11.9737 10.2899 11.9737 10.6307 11.9422 10.9713L12.7005 11.3121C12.732 10.8691 12.732 10.3921 12.732 9.91509C12.732 9.13151 12.7005 8.34768 12.6372 7.59836L17.3757 7.59812C17.5653 8.34769 17.66 9.13127 17.66 9.91485C17.66 10.6984 17.5653 11.4823 17.3757 12.2316H14.7851L16.649 13.0494H17.1545C17.123 13.1176 17.0912 13.1855 17.0912 13.2537L17.7863 13.5603C17.8495 13.3899 17.9125 13.2195 17.9758 13.0494L18.0073 12.9472C18.2916 11.9932 18.4496 10.971 18.4496 9.91481C18.4496 8.8586 18.2915 7.83646 18.0073 6.88246L17.9758 6.78027C17.5967 5.48549 16.9332 4.32713 16.0802 3.30492C14.3426 1.22657 11.8469 0 9.22478 0C6.60267 0 4.13853 1.19262 2.36939 3.30492C1.51636 4.32713 0.884588 5.51944 0.473784 6.78027L0.442271 6.88246C0.157997 7.87041 0 8.89261 0 9.91481C0 10.971 0.158003 11.9932 0.442271 12.9472L0.505832 13.0154ZM15.5119 3.81615C16.2384 4.66794 16.7754 5.69014 17.1547 6.74629H12.5422C12.3842 5.34931 12.1314 4.08872 11.7839 3.03257C11.4997 2.14678 11.1522 1.46517 10.7729 0.954218C12.5739 1.29479 14.2482 2.31695 15.5119 3.81615ZM9.22512 0.7838C10.2362 0.7838 11.3418 3.13479 11.784 6.74629H6.66597C7.10824 3.13479 8.21402 0.7838 9.22506 0.7838H9.22512ZM2.93839 3.81615C4.20194 2.31695 5.8763 1.29481 7.67713 0.954218C7.2981 1.46519 6.95058 2.14659 6.66609 3.03257C6.31857 4.08872 6.06579 5.38356 5.90783 6.74629H1.29557C1.6746 5.69014 2.21184 4.66794 2.93839 3.81615ZM0.790044 9.88086C0.790044 9.09728 0.884802 8.31345 1.07432 7.56413H5.8446C5.78135 8.3137 5.74984 9.09728 5.74984 9.88086C5.74984 10.6644 5.78135 11.4483 5.8446 12.1976H1.07454C0.884808 11.4822 0.79005 10.6986 0.79005 9.88086H0.790044ZM1.29556 13.0154H5.90805C6.06605 14.4124 6.31881 15.673 6.66631 16.7291C6.95058 17.6149 7.29808 18.2966 7.67735 18.8075C4.73899 18.2623 2.30661 16.0138 1.29584 13.0154H1.29556Z" fill="#5E5E5E"/>
<path d="M19.9996 18.8406L17.2512 15.8762L19.3993 14.6496L12.0068 11.3789L15.0397 19.3516L16.2086 17.0349L18.957 19.999L19.9996 18.8406Z" fill="#5E5E5E"/>
</svg>
