<svg width="29" height="29" viewBox="0 0 29 29" fill="none" xmlns="http://www.w3.org/2000/svg">
<path opacity="0.4" d="M23.5551 28.1051H4.55066C2.04136 28.1051 0 26.0632 0 23.5531V4.55195C0 2.04183 2.04136 0 4.55066 0H23.5551C26.0637 0 28.1051 2.04183 28.1051 4.55195V23.5538C28.1051 26.0639 26.0637 28.1051 23.5551 28.1051ZM9.49682 23.2348H9.50248V11.1118H5.74067V23.2348H9.49682ZM7.61874 9.45612C8.82367 9.45612 9.79666 8.48084 9.79666 7.27308C9.79666 6.07099 8.81801 5.09005 7.61874 5.09005C6.41383 5.09005 5.44082 6.07099 5.44082 7.27308C5.44082 8.47517 6.41383 9.45612 7.61874 9.45612ZM23.5769 23.2348V16.5893C23.5769 13.3232 22.8696 10.8113 19.0682 10.8113C17.241 10.8113 16.0135 11.8149 15.5101 12.7675H15.4592V11.1118H11.8557V23.2348H15.6119V17.2357C15.6119 15.6537 15.9117 14.1227 17.869 14.1227C19.7923 14.1227 19.8207 15.9315 19.8207 17.3377V23.2348H23.5769Z" fill="black"/>
</svg>
