<svg width="12" height="15" viewBox="0 0 12 15" fill="none" xmlns="http://www.w3.org/2000/svg">
<path d="M5.3571 14.7263C5.66818 15.0912 6.24896 15.0912 6.56017 14.7263C7.80479 13.2255 10.5842 9.8185 11.3309 8.50029C12.2437 6.85765 12.2021 4.95128 11.3309 3.22748C9.83749 0.327503 6.22829 -0.828533 3.28285 0.631632C0.316744 2.0918 -0.824169 5.72193 0.627808 8.50029C1.27079 9.81857 4.09181 13.2255 5.3571 14.7263ZM5.95871 3.59252C7.24471 3.59252 8.28184 4.60652 8.28184 5.86385C8.28184 7.12118 7.24471 8.13518 5.95871 8.13518C4.67271 8.13518 3.63558 7.12118 3.63558 5.86385C3.63544 4.60652 4.69342 3.59252 5.95871 3.59252Z" fill="#9597A1"/>
</svg>
