<svg width="9" height="11" viewBox="0 0 9 11" fill="none" xmlns="http://www.w3.org/2000/svg">
<path d="M6.5916 5.38495C6.52211 5.33865 6.44098 5.35021 6.38312 5.39651C5.80389 5.82512 5.09722 6.06842 4.32105 6.06842C3.54488 6.06842 2.83822 5.81356 2.25899 5.39651C2.20105 5.35021 2.10836 5.35021 2.0505 5.38495C0.683556 6.26537 0 7.9915 0 9.97248C0 11.3394 8.64215 11.3394 8.64215 9.97248C8.64199 7.99146 7.95851 6.26539 6.59156 5.38495H6.5916Z" fill="#6B6B6B"/>
<path d="M6.90113 2.58338C6.90113 4.01013 5.74453 5.16676 4.31775 5.16676C2.89098 5.16676 1.73438 4.01007 1.73438 2.58338C1.73438 1.15669 2.89098 0 4.31775 0C5.74453 0 6.90113 1.1566 6.90113 2.58338Z" fill="#6B6B6B"/>
</svg>
