<svg width="14" height="14" viewBox="0 0 14 14" fill="none" xmlns="http://www.w3.org/2000/svg">
<path d="M10.6033 7.90369L9.16642 9.35723C9.00109 9.52442 8.74413 9.55999 8.53975 9.44396C6.89782 8.48527 5.5312 7.11888 4.57266 5.47699C4.45662 5.2726 4.49197 5.01542 4.65939 4.85034L6.11274 3.39704V3.39681C6.27691 3.23264 6.31226 2.97965 6.19948 2.77689L4.78935 0.26673C4.69587 0.102333 4.5217 0.000480948 4.33264 1.66336e-05H1.04228C0.754867 -0.00161103 0.479544 0.11628 0.282329 0.325561C0.0851147 0.534841 -0.0162458 0.81643 0.00212492 1.10335C0.26931 4.43338 1.71335 7.5597 4.07524 9.92235C6.43736 12.2849 9.5633 13.7296 12.8933 13.9977C13.1807 14.017 13.4633 13.916 13.6733 13.7186C13.8832 13.5214 14.0016 13.2457 14 12.9576V9.6673C13.9995 9.47826 13.8977 9.30409 13.7333 9.21062L11.223 7.8338C11.0237 7.71684 10.7712 7.74544 10.6031 7.9038L10.6033 7.90369Z" fill="black"/>
</svg>
