<svg width="29" height="29" viewBox="0 0 29 29" fill="none" xmlns="http://www.w3.org/2000/svg">
<path opacity="0.4" d="M14.5 0C6.49238 0 0 6.49238 0 14.5C0 20.6432 3.82196 25.8898 9.21596 28.0019C9.08908 26.8552 8.97429 25.0947 9.26671 23.8428C9.53012 22.7118 10.9668 16.6351 10.9668 16.6351C10.9668 16.6351 10.533 15.7663 10.533 14.4831C10.533 12.4664 11.7015 10.962 13.1563 10.962C14.3937 10.962 14.9906 11.8912 14.9906 13.0041C14.9906 14.2487 14.1991 16.1083 13.7895 17.8314C13.4475 19.2753 14.5133 20.4523 15.9367 20.4523C18.5141 20.4523 20.4945 17.7347 20.4945 13.8125C20.4945 10.3409 18.0005 7.91337 14.4384 7.91337C10.3131 7.91337 7.89163 11.0079 7.89163 14.2064C7.89163 15.4522 8.37133 16.7886 8.97067 17.516C9.08908 17.6598 9.106 17.7855 9.07096 17.9317C8.961 18.3896 8.71692 19.3744 8.66858 19.5762C8.60575 19.842 8.45833 19.8976 8.18404 19.7695C6.37275 18.9261 5.24054 16.2787 5.24054 14.152C5.24054 9.57846 8.56346 5.37708 14.8214 5.37708C19.8517 5.37708 23.7607 8.961 23.7607 13.752C23.7607 18.7497 20.6093 22.771 16.2364 22.771C14.767 22.771 13.3859 22.0074 12.9135 21.106C12.9135 21.106 12.186 23.8743 12.0096 24.5533C11.6822 25.8124 10.7989 27.3917 10.2068 28.3547C11.5638 28.7728 13.0053 29 14.5 29C22.5076 29 29 22.5076 29 14.5C29 6.49238 22.5076 0 14.5 0Z" fill="black"/>
</svg>
