<svg width="36" height="34" viewBox="0 0 36 34" fill="none" xmlns="http://www.w3.org/2000/svg">
<path d="M33.6365 13.0495L29.1145 9.115V1.52712C29.1145 1.23525 28.8795 1.00024 28.5877 1.00024L6.81098 1C6.51911 1 6.2841 1.23501 6.2841 1.52688V9.41739L2.10375 13.0494C1.38102 13.6761 1 14.5128 1 15.4707V29.7918C1 31.5614 2.43857 33 4.20821 33H31.5323C33.302 33 34.7406 31.5614 34.7406 29.7918L34.7403 15.4671C34.7403 14.5129 34.3593 13.6763 33.6366 13.0496L33.6365 13.0495ZM32.9421 13.847C33.4334 14.2743 33.6792 14.8191 33.6792 15.467V16.3323L29.111 19.3909V10.514L32.9421 13.847ZM28.057 2.05746V20.0958L17.902 26.893L7.33738 19.8251V2.05746H28.057ZM2.79805 13.847L6.284 10.8205V19.1205L2.05739 16.2934V15.4673C2.05739 14.8158 2.30655 14.271 2.79805 13.8473V13.847ZM31.532 31.9385H4.20787C3.02221 31.9385 2.05721 30.9734 2.05721 29.7878V17.5676L17.6063 27.9678C17.6952 28.0285 17.7986 28.0568 17.9019 28.0568C18.0053 28.0568 18.1084 28.0282 18.1976 27.9678L33.6826 17.6032V29.7878C33.6826 30.9735 32.7175 31.9385 31.5319 31.9385H31.532ZM17.699 17.6778C19.0128 17.6778 20.2661 17.2684 21.3237 16.4921C21.5587 16.3213 21.6085 15.99 21.4377 15.755C21.2633 15.52 20.932 15.4702 20.7005 15.6411C19.8247 16.2819 18.7884 16.6203 17.699 16.6203C14.8969 16.6203 12.6181 14.3414 12.6181 11.5393C12.6181 8.73714 14.8969 6.45836 17.699 6.45836C20.5012 6.45836 22.78 8.7372 22.78 11.5393C22.78 11.6639 22.7694 11.7885 22.7623 11.9095C22.7161 12.5648 22.1748 13.0881 21.5054 13.0881C20.8074 13.0881 20.2414 12.5221 20.2414 11.8241V11.4716C20.2414 11.4539 20.2449 11.436 20.2449 11.4183C20.2449 11.4006 20.2414 11.3827 20.2414 11.365V9.47076C20.2414 9.17889 20.0064 8.94388 19.7145 8.94388C19.5151 8.94388 19.3405 9.05784 19.2515 9.2216C18.7317 8.7622 18.0515 8.48093 17.3075 8.48093C15.6875 8.48093 14.3664 9.79827 14.3664 11.422C14.3664 13.0456 15.6837 14.3631 17.3075 14.3631C18.2581 14.3631 19.1022 13.9073 19.6396 13.2061C20.0634 13.7794 20.7399 14.1567 21.5091 14.1567C22.6379 14.1567 23.5814 13.3448 23.7879 12.2731C23.7985 12.241 23.8056 12.2053 23.8094 12.1662C23.8129 12.1485 23.8094 12.1305 23.8129 12.1129C23.8235 12.0204 23.8306 11.9312 23.8306 11.8351C23.8306 11.8245 23.8271 11.8174 23.8271 11.8066C23.8306 11.7212 23.8412 11.6358 23.8412 11.5501C23.8412 8.16751 21.0889 5.4119 17.703 5.4119C14.3172 5.4119 11.5648 8.16425 11.5648 11.5501C11.5646 14.9363 14.3134 17.678 17.6994 17.678L17.699 17.6778ZM17.3038 13.2983C16.2642 13.2983 15.4202 12.4545 15.4202 11.4147C15.4202 10.3751 16.2639 9.53106 17.3038 9.53106C18.3327 9.53106 19.1695 10.3606 19.1838 11.3861V11.4394C19.1659 12.4687 18.3327 13.2982 17.3038 13.2982V13.2983Z" fill="#FF2525" stroke="#FF2525" stroke-width="0.6"/>
</svg>
