<svg width="29" height="34" viewBox="0 0 29 34" fill="none" xmlns="http://www.w3.org/2000/svg">
<path d="M13.1986 33.5135C13.523 33.8379 13.9283 34 14.334 34C14.7396 34 15.1449 33.8379 15.4693 33.5135L24.4711 24.5117C30.0669 18.9159 30.0669 9.79255 24.4711 4.19684C18.8754 -1.39895 9.79253 -1.39895 4.19681 4.19684C-1.3989 9.79262 -1.39897 18.916 4.19681 24.5117L13.1986 33.5135ZM6.46746 6.54866C10.8063 2.20981 17.8616 2.20981 22.2003 6.54866C26.4984 10.8875 26.4984 17.9023 22.2003 22.241L14.3339 30.0669L6.46746 22.241C2.16938 17.9024 2.1289 10.8468 6.46746 6.54866Z" fill="#FF2525"/>
<path d="M14.3326 18.8351C17.5766 18.8351 20.2121 16.1996 20.2121 12.9557C20.2121 9.71169 17.5766 7.07617 14.3326 7.07617C11.0886 7.07617 8.45312 9.71169 8.45312 12.9557C8.45312 16.1996 11.0886 18.8351 14.3326 18.8351ZM14.3326 10.3199C15.7924 10.3199 16.9681 11.4957 16.9681 12.9554C16.9681 14.4152 15.7924 15.591 14.3326 15.591C12.8729 15.591 11.6971 14.4152 11.6971 12.9554C11.6971 11.4957 12.8729 10.3199 14.3326 10.3199Z" fill="#FF2525"/>
</svg>
