<svg width="38" height="31" viewBox="0 0 38 31" fill="none" xmlns="http://www.w3.org/2000/svg">
<path d="M23.4618 0H13.9074C6.23896 0 0 6.23868 0 13.9074C0 14.5522 0.522978 15.0752 1.16779 15.0752H4.62232L3.19387 26.5022C3.18783 26.5503 3.18481 26.5986 3.18481 26.6471C3.18481 29.0472 5.13735 31 7.53769 31H29.832C32.2321 31 34.1846 29.0475 34.1846 26.6471C34.1846 26.5986 34.1816 26.5503 34.1756 26.5022L32.7471 15.0752H36.2017C36.8467 15.0752 37.3694 14.5522 37.3694 13.9074C37.3694 6.23826 31.1308 0 23.4621 0H23.4618ZM29.832 28.664H7.53761C6.44695 28.664 5.55543 27.7939 5.52143 26.7114L6.97623 15.075H10.7224C11.3672 15.075 11.8902 14.552 11.8902 13.9072V10.7221C11.8902 9.61005 12.7951 8.70512 13.9072 8.70512H23.4616C24.574 8.70512 25.4787 9.61005 25.4787 10.7221V13.9072C25.4787 14.552 26.0014 15.075 26.6464 15.075H30.3932L31.8474 26.7114C31.8131 27.7939 30.9222 28.664 29.8315 28.664H29.832ZM27.8147 12.7399V10.7226C27.8147 8.32258 25.8624 6.37004 23.4621 6.37004H13.9076C11.5076 6.37004 9.55505 8.32258 9.55505 10.7226V12.7399H2.39451C2.98197 6.90564 7.92121 2.33557 13.9073 2.33557H23.4617C29.4483 2.33557 34.388 6.90522 34.9752 12.7399H27.8147Z" fill="#FF2525"/>
<path d="M18.6795 13.5352C15.4014 13.5352 12.7344 16.2019 12.7344 19.48C12.7344 22.7581 15.4014 25.4252 18.6795 25.4252C21.9573 25.4252 24.6244 22.7581 24.6244 19.48C24.6244 16.2022 21.9573 13.5352 18.6795 13.5352ZM18.6795 23.0896C16.6891 23.0896 15.0699 21.4704 15.0699 19.48C15.0699 17.4899 16.6891 15.8707 18.6795 15.8707C20.6699 15.8707 22.2888 17.4899 22.2888 19.48C22.2888 21.4704 20.6699 23.0896 18.6795 23.0896Z" fill="#FF2525"/>
</svg>
