<svg width="24" height="24" viewBox="0 0 24 24" fill="none" xmlns="http://www.w3.org/2000/svg">
<path d="M23.5837 11.9013C23.5814 11.3045 23.1153 10.8423 22.5185 10.845L13.1344 10.8879L13.0982 1.50382C13.0959 0.907064 12.6297 0.444836 12.033 0.447563C11.4362 0.450291 10.9737 0.916763 10.976 1.51351L11.0122 10.8976L1.62815 10.9405C1.0314 10.9432 0.568846 11.4097 0.571152 12.0065C0.572305 12.3048 0.689259 12.5531 0.889073 12.7512C1.08876 12.9492 1.33786 13.0642 1.63647 13.0628L11.0206 13.0199L11.0568 22.4041C11.058 22.7024 11.1749 22.9507 11.3747 23.1488C11.5744 23.3468 11.8235 23.4618 12.1221 23.4604C12.7189 23.4577 13.1814 22.9912 13.1791 22.3945L13.1429 13.0104L22.527 12.9675C23.1071 12.9483 23.5695 12.4819 23.584 11.9015L23.5837 11.9013Z" fill="#FF2525"/>
</svg>
