<svg width="26" height="26" viewBox="0 0 26 26" fill="none" xmlns="http://www.w3.org/2000/svg">
<circle r="13" transform="matrix(-1 0 0 1 13 13)" fill="#FF2525"/>
<path d="M7.34763 13.2799C7.34763 13.0804 7.5196 12.9171 7.72982 12.9171H17.4574L13.9792 9.07138C13.8453 8.92624 13.8645 8.69037 14.0174 8.56345C14.1703 8.4364 14.4188 8.45463 14.5525 8.59976L18.5659 13.0442C18.6805 13.1712 18.6805 13.3889 18.5659 13.5158L14.5525 17.9602C14.4761 18.0509 14.3614 18.0872 14.2659 18.0872C14.1703 18.0872 14.094 18.0509 14.0174 17.9965C13.8645 17.8694 13.8455 17.6337 13.9792 17.4886L17.4574 13.6428H7.72983C7.5196 13.6428 7.34751 13.4796 7.34751 13.28L7.34763 13.2799Z" fill="white"/>
</svg>
