<svg width="46" height="46" viewBox="0 0 46 46" fill="none" xmlns="http://www.w3.org/2000/svg">
<circle r="23" transform="matrix(-1 0 0 1 23 23)" fill="#FAFAFA"/>
<path d="M13.0002 23.4948C13.0002 23.1417 13.3045 22.8529 13.6764 22.8529H30.8867L24.7329 16.0489C24.4961 15.7921 24.5301 15.3748 24.8006 15.1503C25.0711 14.9255 25.5108 14.9577 25.7474 15.2145L32.8479 23.0777C33.0507 23.3024 33.0507 23.6875 32.8479 23.9121L25.7474 31.7752C25.6122 31.9357 25.4091 32 25.2403 32C25.0712 32 24.936 31.9357 24.8006 31.8395C24.5301 31.6147 24.4964 31.1976 24.7329 30.9408L30.8867 24.1368H13.6764C13.3045 24.1368 13 23.848 13 23.495L13.0002 23.4948Z" fill="#0E1B47"/>
</svg>
