<svg width="21" height="20" viewBox="0 0 21 20" fill="none" xmlns="http://www.w3.org/2000/svg">
<path d="M7.89856 0C3.54871 0 0 3.54871 0 7.89856C0 12.2484 3.54871 15.7971 7.89856 15.7971C12.2484 15.7971 15.7971 12.2484 15.7971 7.89856C15.7971 3.54871 12.2484 0 7.89856 0ZM7.89856 2.10688C11.11 2.10688 13.6902 4.68714 13.6902 7.89856C13.6902 11.11 11.11 13.6902 7.89856 13.6902C4.68714 13.6902 2.10688 11.11 2.10688 7.89856C2.10688 4.68714 4.68714 2.10688 7.89856 2.10688Z" fill="white"/>
<path d="M13.1653 12.0898C12.8844 12.09 12.6152 12.2023 12.4176 12.4017C12.22 12.6013 12.1101 12.8714 12.1126 13.1523C12.1151 13.4331 12.2295 13.7013 12.4306 13.8974L18.2223 19.6931C18.4891 19.9591 18.8773 20.0626 19.2408 19.9646C19.6046 19.8668 19.8882 19.5822 19.9852 19.2183C20.0823 18.8544 19.9778 18.4665 19.7112 18.2005L13.9195 12.4088C13.7215 12.2052 13.4495 12.0902 13.1655 12.09L13.1653 12.0898Z" fill="white"/>
</svg>
