<svg width="18" height="18" viewBox="0 0 18 18" fill="none" xmlns="http://www.w3.org/2000/svg">
<path d="M11.8954 5.01684L9.78575 0.6738C9.69446 0.485815 9.55107 0.349731 9.38676 0.269391C9.26058 0.207604 9.12395 0.176092 8.9904 0.175784C8.85561 0.175475 8.71852 0.205905 8.59326 0.267073C8.43157 0.346314 8.28925 0.481782 8.19611 0.673776L6.08673 5.01563C6.0128 5.16577 5.8691 5.27791 5.6919 5.30278L0.937892 5.97671C0.729181 6.00467 0.556434 6.09998 0.429953 6.2322C0.336203 6.33029 0.265504 6.4503 0.223394 6.57975C0.180669 6.71074 0.166375 6.85022 0.184356 6.98538C0.208485 7.1658 0.293167 7.34498 0.447166 7.49387L3.87755 10.8239C4.01233 10.9397 4.08472 11.1218 4.05183 11.3101L3.21745 16.0727C3.18333 16.2701 3.21438 16.4561 3.29706 16.6232C3.36883 16.7582 3.4612 16.865 3.56925 16.9442C3.67744 17.0238 3.80608 17.08 3.94394 17.1042C4.11515 17.1345 4.30173 17.1121 4.48186 17.0221L8.7476 14.7429C8.89438 14.6647 9.07604 14.6587 9.23343 14.7429L13.4771 17.0103C13.6562 17.1058 13.8462 17.1317 14.029 17.1027C14.1743 17.0775 14.3043 17.0213 14.4145 16.9413C14.5241 16.8617 14.6167 16.7567 14.681 16.6339C14.7621 16.4791 14.7973 16.2913 14.765 16.086L13.9291 11.3116C13.9018 11.1467 13.9525 10.9717 14.0811 10.8476L17.5212 7.50492C17.6803 7.35664 17.7685 7.17282 17.7941 6.98576C17.8124 6.85261 17.8001 6.71498 17.7603 6.58661C17.7208 6.45902 17.6538 6.34024 17.5641 6.24292C17.4373 6.10591 17.2604 6.00597 17.042 5.9757L12.3179 5.30762C12.1419 5.29294 11.9774 5.18775 11.8947 5.01675L11.8954 5.01684Z" fill="white"/>
</svg>
