<svg width="14" height="14" viewBox="0 0 14 14" fill="none" xmlns="http://www.w3.org/2000/svg">
<path d="M7.0391 2.83498e-09H6.99928C3.15789 -0.000108497 0.021778 3.11417 0.00011131 6.96083C-0.0214815 10.8206 3.10122 13.9781 6.96094 14H7.00077C10.8422 14 13.9785 10.8856 13.9999 7.03917C14.0215 3.17972 10.8991 0.0219445 7.0391 0.000277787V2.83498e-09ZM6.96716 12.8569C3.73772 12.8389 1.12494 10.1966 1.14299 6.96722C1.16101 3.74889 3.78513 1.14278 6.99966 1.14278H7.03297C10.2627 1.16101 12.8752 3.80306 12.8574 7.0325C12.8392 10.2622 10.1941 12.8683 6.96742 12.8569H6.96716Z" fill="#0DA537"/>
<path d="M7.3166 3.32628H7.31335C6.99932 3.32628 6.74368 3.57997 6.74196 3.89453L6.72536 6.88509L3.9773 9.60264C3.7528 9.82443 3.75085 10.1863 3.97275 10.4108C4.08462 10.5239 4.23175 10.5805 4.37911 10.5805C4.52429 10.5805 4.66958 10.5256 4.78091 10.4155L7.6098 7.61798C7.77419 7.45554 7.86588 7.23853 7.86772 7.00556L7.88498 3.90084C7.88671 3.5852 7.63237 3.32792 7.31673 3.32617L7.3166 3.32628Z" fill="#0DA537"/>
</svg>
