<svg width="32" height="25" viewBox="0 0 32 25" fill="none" xmlns="http://www.w3.org/2000/svg">
<path opacity="0.4" d="M9.96766 24.4786C21.9423 24.4786 28.4929 15.0586 28.4929 6.9039C28.4929 6.6403 28.4929 6.37293 28.481 6.10933C29.7563 5.23283 30.857 4.14767 31.7315 2.90469C30.5402 3.40337 29.2778 3.73203 27.9852 3.88001C29.3468 3.10736 30.3665 1.89165 30.8549 0.458842C29.5757 1.17833 28.1756 1.68341 26.716 1.95196C25.7346 0.95973 24.4361 0.302409 23.0214 0.0818118C21.6067 -0.138786 20.1549 0.089652 18.8908 0.73174C17.6268 1.37383 16.621 2.39373 16.0293 3.63347C15.4376 4.87321 15.293 6.2636 15.6179 7.58927C13.0292 7.46603 10.4968 6.82758 8.18483 5.71533C5.87285 4.60307 3.83294 3.04184 2.19741 1.13291C1.36711 2.49438 1.11372 4.10483 1.4887 5.63723C1.86367 7.16963 2.83889 8.5091 4.21633 9.38364C3.18414 9.35035 2.17464 9.0872 1.26926 8.61543V8.70016C1.27104 10.1264 1.79146 11.5083 2.74254 12.6123C3.69363 13.7163 5.01705 14.4747 6.4891 14.7592C5.93035 14.9054 5.35317 14.9782 4.77361 14.9758C4.36504 14.9769 3.95728 14.941 3.55591 14.8684C3.97197 16.0962 4.78208 17.1696 5.8728 17.9384C6.96352 18.7072 8.28021 19.1329 9.63845 19.1557C7.33108 20.8763 4.48089 21.8095 1.54691 21.8049C1.02993 21.807 0.513303 21.7787 0 21.7202C2.97783 23.5226 6.43614 24.4796 9.96766 24.4786Z" fill="black"/>
</svg>
