<svg width="18" height="9" viewBox="0 0 18 9" fill="none" xmlns="http://www.w3.org/2000/svg">
<path d="M16.9459 4.28745C14.6781 1.52369 11.7017 0 8.51282 0C5.32396 0 2.34765 1.52366 0.0797173 4.28745C-0.0265724 4.42922 -0.0265724 4.60632 0.0797173 4.74808C2.34752 7.47638 5.32396 9 8.51282 9C11.7017 9 14.678 7.47634 16.9459 4.71255C17.0522 4.60626 17.0522 4.39368 16.9459 4.28739V4.28745ZM8.51282 7.9014C6.63484 7.9014 5.11141 6.37775 5.11141 4.5C5.11141 2.62202 6.63507 1.0986 8.51282 1.0986C10.3908 1.0986 11.9142 2.62225 11.9142 4.5C11.9142 6.37798 10.3907 7.9014 8.51282 7.9014Z" fill="#535353"/>
<path d="M9.71521 4.49774C9.71521 5.16312 9.17578 5.70251 8.51044 5.70251C7.84509 5.70251 7.30566 5.16308 7.30566 4.49774C7.30566 3.8324 7.84509 3.29297 8.51044 3.29297C9.17578 3.29297 9.71521 3.8324 9.71521 4.49774Z" fill="#535353"/>
</svg>
