<svg width="25" height="13" viewBox="0 0 25 13" fill="none" xmlns="http://www.w3.org/2000/svg">
<path d="M24.4774 6.19299C21.2017 2.20089 16.9024 0 12.2963 0C7.69017 0 3.39105 2.20084 0.115147 6.19299C-0.0383824 6.39776 -0.0383824 6.65357 0.115147 6.85834C3.39086 10.7992 7.69017 13 12.2963 13C16.9024 13 21.2015 10.7992 24.4774 6.80701C24.631 6.65348 24.631 6.34643 24.4774 6.19289V6.19299ZM12.2963 11.4131C9.58366 11.4131 7.38315 9.2123 7.38315 6.5C7.38315 3.78737 9.58399 1.58686 12.2963 1.58686C15.0089 1.58686 17.2094 3.7877 17.2094 6.5C17.2094 9.21263 15.0088 11.4131 12.2963 11.4131Z" fill="white"/>
<path d="M14.0371 6.49999C14.0371 7.46109 13.2579 8.24022 12.2969 8.24022C11.3358 8.24022 10.5566 7.46104 10.5566 6.49999C10.5566 5.53894 11.3358 4.75977 12.2969 4.75977C13.2579 4.75977 14.0371 5.53894 14.0371 6.49999Z" fill="white"/>
</svg>
