<svg width="30" height="30" viewBox="0 0 30 30" fill="none" xmlns="http://www.w3.org/2000/svg">
<path opacity="0.4" d="M16.928 14.2535L13.5342 12.6699C13.2381 12.5324 12.9948 12.6866 12.9948 13.0145V15.9972C12.9948 16.3251 13.2381 16.4792 13.5342 16.3417L16.9265 14.7582C17.2242 14.6192 17.2242 14.3925 16.928 14.2535ZM14.5058 0C6.49438 0 0 6.49438 0 14.5058C0 22.5173 6.49438 29.0117 14.5058 29.0117C22.5173 29.0117 29.0117 22.5173 29.0117 14.5058C29.0117 6.49438 22.5173 0 14.5058 0ZM14.5058 20.3988C7.08066 20.3988 6.95071 19.7294 6.95071 14.5058C6.95071 9.28222 7.08066 8.61284 14.5058 8.61284C21.931 8.61284 22.061 9.28222 22.061 14.5058C22.061 19.7294 21.931 20.3988 14.5058 20.3988Z" fill="black"/>
</svg>
